<?xml version="1.0" standalone="no"?>
<!DOCTYPE svg PUBLIC "-//W3C//DTD SVG 20010904//EN"
 "http://www.w3.org/TR/2001/REC-SVG-20010904/DTD/svg10.dtd">
<svg version="1.0" xmlns="http://www.w3.org/2000/svg"
 width="500.000000pt" height="500.000000pt" viewBox="0 0 500.000000 500.000000"
 preserveAspectRatio="xMidYMid meet">
<metadata>
Created by potrace 1.14, written by Peter Selinger 2001-2017
</metadata>
<g transform="translate(0.000000,500.000000) scale(0.100000,-0.100000)"
fill="#000000" stroke="none">
<path d="M421 4698 c-5 -13 -13 -49 -19 -80 -6 -31 -24 -88 -41 -126 -33 -75
-37 -97 -21 -107 21 -13 51 8 96 66 68 89 104 104 242 104 98 0 115 -2 127
-18 22 -30 27 -157 23 -584 -4 -472 4 -442 -116 -481 -56 -18 -72 -28 -72 -43
0 -13 7 -19 23 -20 85 -2 583 3 589 7 19 12 -9 34 -65 53 -33 12 -74 33 -89
48 l-28 27 0 466 c0 481 3 520 40 540 31 16 225 12 267 -5 54 -23 68 -39 94
-107 38 -102 67 -92 79 28 4 44 14 109 21 145 7 36 10 73 6 83 -7 18 -13 16
-97 -37 -34 -22 -41 -22 -465 -25 -284 -2 -442 0 -466 7 -22 7 -47 25 -63 46
-31 40 -53 45 -65 13z"/>
<path d="M4527 4644 c-4 -4 -193 -8 -419 -8 -406 -1 -413 -1 -413 -21 0 -15
13 -24 55 -38 30 -9 66 -28 80 -42 l25 -25 0 -491 0 -491 -28 -24 c-15 -13
-52 -31 -81 -39 -52 -15 -76 -38 -55 -51 12 -7 908 -8 916 -1 12 13 63 204 63
239 0 57 -29 52 -64 -12 -67 -123 -112 -149 -271 -157 -133 -7 -179 0 -211 32
-24 24 -24 26 -24 243 0 156 3 221 12 230 8 8 52 12 130 12 135 0 143 -4 173
-86 10 -27 24 -56 32 -64 28 -30 34 4 31 186 -3 206 -12 222 -63 119 -26 -51
-36 -62 -70 -73 -55 -19 -222 -13 -235 8 -5 8 -10 108 -10 221 l0 206 26 24
c23 22 36 24 127 28 200 6 255 -28 311 -192 11 -33 41 -16 44 26 3 30 -24 228
-31 233 -10 8 -45 13 -50 8z"/>
<path d="M1913 4623 c-6 -16 14 -43 33 -43 32 0 92 -33 103 -56 8 -18 11 -167
11 -500 0 -541 3 -521 -77 -549 -63 -22 -76 -29 -81 -43 -7 -23 46 -27 311
-24 250 3 267 4 267 21 0 13 -16 24 -59 40 -74 27 -108 60 -116 114 -3 23 -5
121 -3 217 l3 175 305 0 305 0 0 -217 c0 -216 0 -217 -24 -242 -14 -15 -51
-36 -83 -47 -41 -16 -58 -27 -58 -40 0 -17 17 -18 263 -21 259 -3 312 1 305
24 -5 14 -18 21 -81 43 -81 29 -78 7 -75 559 3 546 -1 514 82 538 49 13 71 31
63 50 -4 12 -52 14 -279 14 -262 -1 -273 -2 -273 -20 0 -14 17 -26 65 -45 98
-39 101 -48 98 -296 l-3 -200 -294 -3 c-208 -2 -298 1 -307 9 -11 9 -14 53
-14 201 0 249 7 265 128 298 36 9 43 15 40 33 l-3 22 -273 1 c-222 1 -275 -2
-279 -13z"/>
<path d="M964 3070 c-94 -13 -142 -28 -229 -73 -150 -78 -261 -221 -305 -393
-25 -95 -27 -254 -5 -338 50 -192 193 -345 395 -422 71 -27 83 -29 235 -28
139 0 168 3 219 22 197 73 325 201 393 394 32 88 43 261 23 361 -41 213 -231
405 -455 461 -80 19 -196 26 -271 16z m204 -106 c152 -68 256 -277 268 -544
10 -210 -36 -363 -137 -454 -62 -56 -130 -79 -227 -79 -226 2 -380 225 -398
578 -12 238 55 411 191 490 81 48 207 52 303 9z"/>
<path d="M3978 3070 c-271 -33 -481 -226 -539 -495 -7 -33 -13 -103 -12 -155
0 -179 49 -297 178 -426 131 -131 264 -184 466 -184 198 0 331 52 461 181 126
124 188 279 188 469 0 108 -21 194 -67 283 -123 234 -389 362 -675 327z m199
-100 c143 -62 247 -247 273 -490 36 -331 -79 -559 -298 -590 -164 -23 -292 51
-376 219 -49 97 -76 212 -83 356 -14 302 90 491 289 524 67 11 141 4 195 -19z"/>
<path d="M2071 3044 c-13 -10 -13 -14 -2 -28 7 -9 19 -16 25 -16 31 0 91 -24
112 -45 l24 -24 0 -484 c0 -555 6 -521 -93 -552 -61 -20 -86 -40 -71 -55 7 -7
172 -11 490 -13 l478 -2 8 45 c5 25 20 95 35 157 22 93 24 114 13 128 -18 22
-33 7 -76 -76 -42 -80 -106 -143 -160 -158 -22 -6 -97 -11 -167 -11 -145 0
-191 12 -207 56 -7 17 -10 194 -8 495 3 536 -6 488 105 524 64 21 96 45 80 61
-13 13 -568 11 -586 -2z"/>
<path d="M1012 1539 c-365 -47 -620 -340 -599 -688 7 -119 34 -199 99 -296 74
-112 173 -187 320 -240 61 -23 94 -28 203 -32 157 -6 246 12 400 80 109 49
120 62 86 108 -24 32 -27 94 -10 199 13 82 28 105 81 122 35 12 43 19 43 39
l0 24 -262 1 c-216 1 -265 -1 -274 -13 -18 -21 7 -41 70 -53 81 -15 129 -46
137 -88 10 -52 -4 -209 -21 -242 -35 -67 -128 -107 -229 -96 -225 23 -376 245
-376 555 0 320 182 540 446 541 145 0 252 -63 318 -188 20 -39 44 -73 53 -76
27 -11 45 22 39 69 -3 22 -8 73 -12 112 -4 40 -12 80 -18 88 -15 21 -95 42
-251 65 -140 21 -148 22 -243 9z"/>
<path d="M4160 1540 c-138 -17 -266 -65 -374 -139 -76 -53 -163 -156 -205
-244 -50 -105 -65 -183 -58 -300 16 -255 174 -449 443 -544 75 -27 87 -28 264
-28 149 0 199 4 255 19 96 25 140 49 153 83 30 80 54 196 45 220 -12 31 -44
11 -91 -59 -96 -145 -191 -193 -361 -186 -85 3 -106 8 -163 36 -119 58 -216
191 -253 343 -55 231 -11 445 121 589 128 138 338 175 511 89 72 -35 103 -70
134 -154 12 -33 27 -66 32 -72 14 -20 45 -15 52 7 9 27 -13 251 -26 266 -38
46 -334 92 -479 74z"/>
<path d="M2300 1522 c-6 -2 -10 -12 -10 -23 0 -14 13 -22 55 -35 31 -8 68 -26
83 -39 l27 -23 3 -464 c2 -314 0 -475 -8 -500 -12 -41 -38 -60 -121 -84 -37
-11 -49 -20 -49 -34 0 -12 7 -20 18 -21 110 -4 569 4 576 11 11 11 -11 40 -31
40 -8 0 -37 10 -64 21 -82 36 -79 13 -79 549 l0 472 28 27 c16 16 52 36 85 45
44 13 57 21 57 36 0 11 -3 20 -7 21 -21 3 -554 4 -563 1z"/>
</g>
</svg>
