<?xml version="1.0" standalone="no"?>
<!DOCTYPE svg PUBLIC "-//W3C//DTD SVG 20010904//EN"
 "http://www.w3.org/TR/2001/REC-SVG-20010904/DTD/svg10.dtd">
<svg version="1.0" xmlns="http://www.w3.org/2000/svg"
 width="500.000000pt" height="500.000000pt" viewBox="0 0 500.000000 500.000000"
 preserveAspectRatio="xMidYMid meet">
<metadata>
Created by potrace 1.14, written by Peter Selinger 2001-2017
</metadata>
<g transform="translate(0.000000,500.000000) scale(0.100000,-0.100000)"
fill="#000000" stroke="none">
<path d="M421 4698 c-5 -13 -13 -49 -19 -80 -6 -31 -24 -88 -41 -126 -33 -75
-37 -97 -21 -107 21 -13 51 8 96 66 68 89 104 104 242 104 98 0 115 -2 127
-18 22 -30 27 -157 23 -584 -4 -472 4 -442 -116 -481 -56 -18 -72 -28 -72 -43
0 -13 7 -19 23 -20 85 -2 583 3 589 7 19 12 -9 34 -65 53 -33 12 -74 33 -89
48 l-28 27 0 466 c0 481 3 520 40 540 31 16 225 12 267 -5 54 -23 68 -39 94
-107 38 -102 67 -92 79 28 4 44 14 109 21 145 7 36 10 73 6 83 -7 18 -13 16
-97 -37 -34 -22 -41 -22 -465 -25 -284 -2 -442 0 -466 7 -22 7 -47 25 -63 46
-31 40 -53 45 -65 13z"/>
<path d="M4527 4644 c-4 -4 -193 -8 -419 -8 -406 -1 -413 -1 -413 -21 0 -15
13 -24 55 -38 30 -9 66 -28 80 -42 l25 -25 0 -491 0 -491 -28 -24 c-15 -13
-52 -31 -81 -39 -52 -15 -76 -38 -55 -51 12 -7 908 -8 916 -1 12 13 63 204 63
239 0 57 -29 52 -64 -12 -67 -123 -112 -149 -271 -157 -133 -7 -179 0 -211 32
-24 24 -24 26 -24 243 0 156 3 221 12 230 8 8 52 12 130 12 135 0 143 -4 173
-86 10 -27 24 -56 32 -64 28 -30 34 4 31 186 -3 206 -12 222 -63 119 -26 -51
-36 -62 -70 -73 -55 -19 -222 -13 -235 8 -5 8 -10 108 -10 221 l0 206 26 24
c23 22 36 24 127 28 200 6 255 -28 311 -192 11 -33 41 -16 44 26 3 30 -24 228
-31 233 -10 8 -45 13 -50 8z"/>
<path d="M1913 4623 c-6 -16 14 -43 33 -43 32 0 92 -33 103 -56 8 -18 11 -167
11 -500 0 -541 3 -521 -77 -549 -63 -22 -76 -29 -81 -43 -7 -23 46 -27 311
-24 250 3 267 4 267 21 0 13 -16 24 -59 40 -74 27 -108 60 -116 114 -3 23 -5
121 -3 217 l3 175 305 0 305 0 0 -217 c0 -216 0 -217 -24 -242 -14 -15 -51
-36 -83 -47 -41 -16 -58 -27 -58 -40 0 -17 17 -18 263 -21 259 -3 312 1 305
24 -5 14 -18 21 -81 43 -81 29 -78 7 -75 559 3 546 -1 514 82 538 49 13 71 31
63 50 -4 12 -52 14 -279 14 -262 -1 -273 -2 -273 -20 0 -14 17 -26 65 -45 98
-39 101 -48 98 -296 l-3 -200 -294 -3 c-208 -2 -298 1 -307 9 -11 9 -14 53
-14 201 0 249 7 265 128 298 36 9 43 15 40 33 l-3 22 -273 1 c-222 1 -275 -2
-279 -13z"/>
<path d="M904 3070 c-94 -13 -142 -28 -229 -73 -150 -78 -261 -221 -305 -393
-25 -95 -27 -254 -5 -338 50 -192 193 -345 395 -422 71 -27 83 -29 235 -28
139 0 168 3 219 22 197 73 325 201 393 394 32 88 43 261 23 361 -41 213 -231
405 -455 461 -80 19 -196 26 -271 16z m204 -106 c152 -68 256 -277 268 -544
10 -210 -36 -363 -137 -454 -62 -56 -130 -79 -227 -79 -226 2 -380 225 -398
578 -12 238 55 411 191 490 81 48 207 52 303 9z"/>
<path d="M3908 3070 c-271 -33 -481 -226 -539 -495 -7 -33 -13 -103 -12 -155
0 -179 49 -297 178 -426 131 -131 264 -184 466 -184 198 0 331 52 461 181 126
124 188 279 188 469 0 108 -21 194 -67 283 -123 234 -389 362 -675 327z m199
-100 c143 -62 247 -247 273 -490 36 -331 -79 -559 -298 -590 -164 -23 -292 51
-376 219 -49 97 -76 212 -83 356 -14 302 90 491 289 524 67 11 141 4 195 -19z"/>
<path d="M2010 3052 c-6 -2 -10 -12 -10 -21 0 -14 19 -24 73 -42 68 -23 73
-26 85 -63 10 -31 12 -146 10 -502 l-3 -462 -24 -26 c-14 -15 -51 -36 -83 -47
-42 -16 -58 -27 -58 -40 0 -11 3 -19 8 -19 4 0 220 -1 480 -3 532 -2 484 -10
496 78 4 28 16 83 27 123 41 155 8 189 -58 58 -38 -75 -71 -114 -122 -144 -43
-25 -55 -27 -182 -30 -157 -4 -209 6 -230 44 -11 22 -14 110 -14 496 l0 470
27 23 c15 13 56 33 92 45 51 17 66 26 66 41 0 10 -3 19 -7 20 -21 3 -564 4
-573 1z"/>
<path d="M975 1543 c-249 -29 -453 -161 -557 -358 -129 -247 -90 -525 102
-716 86 -86 193 -146 310 -173 94 -22 268 -21 362 3 103 27 276 102 283 123 4
10 -3 30 -16 47 -20 27 -21 38 -17 133 6 128 18 155 83 189 34 17 50 32 50 45
0 18 -10 19 -255 21 -140 0 -263 -1 -272 -4 -10 -2 -18 -13 -18 -23 0 -19 28
-32 100 -45 19 -4 52 -18 73 -31 l37 -24 0 -113 c0 -139 -17 -182 -82 -221
-120 -70 -313 -24 -413 98 -82 101 -128 246 -129 416 -1 133 11 194 62 300 81
172 233 261 421 247 135 -10 222 -69 284 -193 32 -64 51 -81 72 -64 29 24 9
243 -26 272 -23 20 -127 45 -269 64 -104 13 -126 14 -185 7z"/>
<path d="M4088 1540 c-413 -51 -689 -383 -624 -750 43 -240 230 -425 495 -491
161 -40 497 -11 581 49 30 22 68 126 77 212 6 59 6 60 -20 60 -19 0 -31 -11
-53 -47 -43 -74 -128 -158 -187 -185 -45 -20 -67 -23 -172 -23 -112 0 -124 2
-178 29 -67 32 -150 111 -190 178 -14 25 -38 81 -53 124 -35 104 -45 294 -20
394 64 256 261 400 505 370 144 -19 224 -78 269 -201 24 -65 31 -74 52 -74
l25 0 -2 123 c-1 93 -5 129 -17 147 -38 57 -319 106 -488 85z"/>
<path d="M2227 1518 c-21 -13 6 -40 53 -54 64 -19 86 -33 99 -61 8 -16 11
-172 11 -497 0 -546 6 -511 -98 -542 -67 -21 -92 -38 -75 -55 13 -13 12 -13
331 -11 251 2 262 3 262 21 0 15 -15 24 -64 41 -35 11 -74 32 -87 46 l-24 26
-3 456 c-2 317 0 469 8 495 12 40 17 43 143 95 29 12 34 26 15 39 -16 9 -556
11 -571 1z"/>
</g>
</svg>
