<?xml version="1.0" standalone="no"?>
<!DOCTYPE svg PUBLIC "-//W3C//DTD SVG 20010904//EN"
 "http://www.w3.org/TR/2001/REC-SVG-20010904/DTD/svg10.dtd">
<svg version="1.0" xmlns="http://www.w3.org/2000/svg"
 width="399.000000pt" height="399.000000pt" viewBox="0 0 399.000000 399.000000"
 preserveAspectRatio="xMidYMid meet">
<metadata>
Created by potrace 1.11, written by Peter Selinger 2001-2013
</metadata>
<g transform="translate(0.000000,399.000000) scale(0.100000,-0.100000)"
fill="#000000" stroke="none">
<path d="M0 3926 c0 -55 4 -69 25 -91 29 -33 44 -108 24 -131 -9 -11 -13 -48
-13 -115 0 -54 -4 -99 -8 -99 -4 0 -8 9 -8 19 0 11 -5 23 -10 26 -7 4 -10
-173 -10 -524 0 -347 3 -531 10 -531 13 0 50 -37 50 -51 0 -6 -14 -1 -30 11
l-30 21 1 -193 c0 -106 3 -188 5 -182 6 15 60 -3 88 -28 17 -16 18 -18 3 -18
-9 0 -17 4 -17 9 0 5 -11 11 -25 13 -14 3 -25 1 -25 -3 0 -5 5 -9 11 -9 8 0 8
-5 -1 -15 -16 -20 -27 -19 -33 3 -3 9 -5 -3 -6 -27 -1 -46 -4 -44 48 -24 17 8
5 -34 -16 -56 -13 -12 -16 -12 -24 0 -6 10 -9 2 -9 -25 l0 -39 40 7 c25 4 86
-3 172 -20 189 -36 176 -31 171 -62 -11 -68 -26 -121 -33 -117 -5 3 -11 1 -15
-5 -4 -6 -10 -8 -15 -5 -5 3 -12 -5 -16 -19 -3 -14 -15 -28 -27 -32 -28 -9
-38 -21 -62 -71 -11 -24 -23 -43 -27 -43 -10 0 -7 -52 4 -67 5 -6 10 -31 12
-55 2 -23 6 -50 10 -58 3 -8 7 -31 9 -50 2 -27 7 -34 20 -32 20 3 23 -28 5
-46 -10 -10 -10 -15 1 -21 8 -5 11 -16 8 -25 -5 -11 -1 -16 13 -16 21 0 27
-15 10 -25 -15 -9 -12 -25 5 -25 20 0 19 -12 -4 -37 -16 -17 -17 -23 -7 -34
16 -17 47 -116 50 -161 2 -19 8 -43 14 -55 10 -18 8 -23 -12 -36 -25 -17 -40
-53 -25 -63 14 -8 10 -34 -5 -34 -8 0 -25 -13 -39 -29 -25 -31 -40 -32 -30 -3
5 14 3 15 -8 4 -20 -18 -63 -16 -55 4 3 8 -3 34 -13 58 -11 23 -23 54 -27 70
-3 15 -13 30 -20 33 -8 3 -14 13 -14 23 0 11 -5 22 -11 25 -5 4 -8 12 -6 18 2
7 -7 22 -20 35 -13 12 -23 30 -21 40 1 9 -5 28 -15 42 -17 24 -17 9 -17 -372
1 -219 3 -398 6 -398 2 0 22 16 44 36 36 32 54 74 32 74 -14 0 -32 -23 -32
-40 0 -9 -8 -25 -19 -34 -16 -14 -15 -10 5 32 23 48 67 82 108 82 8 0 20 9 26
20 11 21 30 27 30 10 0 -6 9 -30 21 -54 11 -25 22 -51 23 -58 1 -7 8 -23 14
-36 7 -12 10 -26 8 -31 -3 -5 15 -30 40 -55 24 -25 40 -46 34 -46 -23 0 -8
-30 25 -50 19 -12 35 -23 35 -26 0 -4 -32 7 -45 16 -11 9 -83 25 -75 18 3 -3
31 -19 62 -37 l57 -31 527 0 c490 0 528 1 540 18 13 16 13 16 14 0 0 -29 37
-22 44 7 4 14 4 30 1 35 -3 6 1 7 9 4 9 -3 16 -1 16 5 0 6 10 10 21 8 12 -1
24 5 26 13 4 13 3 13 -6 0 -5 -8 -13 -11 -17 -7 -4 4 1 16 11 27 10 11 20 18
23 15 3 -3 14 3 25 12 20 18 20 18 2 -14 -28 -49 -57 -79 -82 -87 -36 -11 -29
-36 10 -36 24 0 37 7 50 28 11 15 17 29 15 32 -9 14 77 110 99 110 13 0 7 -10
-18 -37 -27 -29 -35 -44 -30 -61 8 -33 23 -32 40 2 10 21 15 25 22 15 5 -9 1
-21 -11 -34 -11 -12 -20 -25 -20 -31 0 -5 15 8 34 29 30 34 35 36 40 19 5 -14
13 -18 31 -14 31 5 32 -4 3 -28 -13 -10 -19 -22 -15 -26 4 -5 12 -2 17 6 7 10
10 11 10 3 0 -7 9 -13 19 -13 17 0 19 6 17 45 -3 56 -8 61 -39 40 -23 -15 -25
-14 -31 1 -4 10 -2 22 4 28 8 8 9 6 4 -8 -5 -13 -4 -17 4 -12 7 4 12 13 12 20
0 7 11 23 25 36 14 13 25 18 25 12 0 -21 78 26 94 56 24 46 54 66 111 72 34 4
56 2 59 -4 3 -7 5 -6 5 2 1 15 21 16 21 2 0 -6 -14 -17 -32 -24 l-31 -13 36
-5 c19 -2 34 -1 31 3 -2 4 16 9 40 11 41 3 45 1 49 -22 3 -14 1 -28 -5 -31 -7
-4 -7 -9 0 -13 6 -4 15 0 19 9 8 13 14 13 53 1 34 -11 39 -14 20 -15 -18 -1
-21 -4 -11 -10 7 -5 28 -5 47 -1 19 4 34 4 34 0 0 -4 11 -11 25 -14 14 -4 23
-11 20 -16 -3 -6 1 -10 9 -10 9 0 16 -7 16 -15 0 -9 7 -18 15 -21 8 -4 15 -11
15 -16 0 -6 11 -21 25 -34 14 -13 21 -26 15 -29 -17 -10 -11 -25 10 -25 10 0
24 8 29 17 10 17 10 17 11 -1 0 -20 0 -20 15 0 13 17 14 17 15 2 0 -16 13 -18
125 -18 77 0 125 4 125 10 0 6 -3 10 -7 10 -13 0 -33 52 -33 82 0 15 4 28 8
28 5 0 9 -12 9 -27 0 -16 8 -45 17 -65 l18 -38 549 0 549 0 0 375 0 374 -47 0
c-55 0 -109 -24 -116 -51 -6 -22 -37 -24 -37 -2 0 8 -4 12 -10 9 -17 -11 -11
-37 10 -42 23 -6 26 -28 6 -40 -7 -4 -18 -18 -24 -29 -11 -21 -17 -22 -134
-18 -99 2 -131 7 -162 23 -57 30 -71 55 -36 66 42 13 17 21 -35 10 -36 -7 -64
-20 -85 -40 -16 -16 -30 -25 -30 -21 0 5 -7 3 -15 -4 -16 -14 -19 -7 -15 38 3
35 -16 25 -26 -15 -11 -46 -36 -63 -65 -45 -17 11 -22 10 -38 -10 -16 -20 -22
-21 -45 -10 -20 9 -26 19 -26 42 0 40 -14 31 -39 -25 -16 -36 -25 -45 -45 -45
-30 0 -50 31 -42 65 l6 23 -43 -16 c-31 -12 -75 -16 -172 -16 -71 1 -124 -1
-117 -3 6 -3 12 -9 12 -14 0 -6 -6 -7 -17 -1 -15 9 -23 7 -62 -15 -9 -5 -9
-61 -1 -92 6 -22 6 -39 0 -46 -6 -7 -6 -24 0 -46 12 -41 12 -39 1 -39 -5 0
-13 9 -16 20 -3 11 -10 20 -15 20 -5 0 -12 -9 -15 -20 -3 -11 -13 -20 -21 -20
-19 0 -18 17 3 29 10 5 15 13 11 17 -5 4 -3 13 2 19 7 9 7 22 0 41 -6 15 -10
37 -9 48 4 57 0 62 -53 79 -29 8 -81 21 -116 27 -35 6 -77 20 -95 30 -18 11
-39 23 -47 26 -8 3 -24 10 -35 14 -11 5 -45 11 -75 13 -30 2 -66 7 -80 11 -14
4 -29 8 -35 10 -33 8 -61 21 -92 42 -31 21 -43 23 -106 18 -80 -6 -100 -18
-118 -71 -8 -25 -8 -41 0 -61 10 -24 16 -27 51 -24 38 4 40 2 67 -44 29 -50
112 -140 148 -160 17 -10 18 -13 6 -27 -7 -9 -17 -14 -23 -11 -5 3 -17 -4 -27
-15 -23 -26 -37 -27 -53 -1 -7 11 -23 20 -35 20 -12 0 -25 5 -28 10 -3 6 0 10
7 10 9 0 9 3 -2 10 -13 9 -8 14 11 12 4 -1 5 8 2 18 -6 23 -5 23 -36 11 -21
-8 -26 -6 -35 15 -7 13 -9 29 -7 36 3 7 -3 18 -14 25 -18 12 -18 11 -1 -48 10
-33 24 -66 30 -74 6 -7 7 -16 3 -18 -12 -7 -36 8 -31 19 1 5 -13 14 -32 20
-38 13 -48 28 -30 49 10 12 10 15 -1 15 -8 0 -5 6 7 15 18 14 17 14 -12 15
-34 0 -40 10 -64 95 -16 54 -10 88 15 95 32 8 64 35 62 51 -4 25 -18 40 -35
37 -10 -1 -23 1 -30 6 -8 4 -23 1 -37 -8 -13 -9 -30 -16 -38 -16 -14 0 -58
-44 -100 -102 -21 -29 -33 -36 -54 -34 -29 3 -60 46 -48 66 8 14 83 32 97 24
6 -4 8 -3 5 3 -3 5 33 29 81 53 72 35 83 44 67 51 -16 6 -14 8 12 8 17 1 35
-4 38 -10 4 -6 19 -9 33 -8 15 2 32 1 37 -2 15 -9 55 -5 95 8 19 7 42 12 50
11 39 -3 54 2 42 14 -23 23 -12 28 46 22 55 -6 62 -4 102 25 24 17 48 30 54
28 6 -2 17 3 24 10 12 11 17 11 31 1 11 -8 9 -4 -4 12 -11 14 -16 22 -11 18 5
-4 14 0 21 9 7 9 19 14 28 10 14 -5 14 -10 -1 -49 -9 -24 -21 -46 -27 -50 -6
-5 -6 -8 3 -8 6 0 12 -7 12 -16 0 -8 -4 -12 -10 -9 -5 3 -10 -3 -10 -13 0 -15
18 -27 75 -50 77 -31 86 -31 60 4 -20 27 -18 37 5 24 11 -6 20 -8 20 -5 0 14
-21 45 -31 45 -13 0 -33 21 -36 38 -4 15 2 15 28 2 15 -8 23 -7 35 5 15 14 13
20 -20 68 -20 29 -36 63 -36 75 0 14 -4 21 -11 16 -7 -4 -9 0 -5 12 3 11 10
42 15 70 11 55 52 136 59 115 2 -7 -5 -26 -17 -42 -12 -16 -24 -50 -28 -76 -6
-44 -5 -47 10 -35 12 11 30 12 69 6 74 -12 73 -12 75 16 7 80 14 90 86 114 9
3 17 12 17 20 0 8 10 22 22 30 12 9 20 17 17 19 -14 10 -63 27 -79 27 -11 0
-20 4 -20 10 0 5 -11 12 -25 16 -28 7 -32 19 -9 28 24 9 31 8 50 -11 41 -42
161 -55 252 -28 29 9 56 14 61 11 5 -3 14 1 21 9 9 11 7 26 -14 71 -31 67 -32
74 -7 74 18 0 58 -47 53 -62 -1 -5 2 -8 8 -8 5 0 7 -6 4 -14 -3 -7 2 -21 11
-30 13 -13 28 -15 73 -10 67 8 69 9 53 28 -10 12 -8 17 9 26 12 6 19 14 17 17
-8 7 -57 -28 -57 -41 0 -6 -16 -12 -35 -13 -32 -3 -40 4 -36 30 0 4 -3 7 -9 7
-5 0 -7 6 -4 14 3 7 -2 16 -10 19 -23 9 -8 40 15 34 12 -3 19 0 19 9 0 8 10
14 25 14 16 0 25 -6 25 -16 0 -9 5 -12 12 -8 16 10 37 13 127 15 70 2 76 0 98
-25 37 -43 26 -85 -22 -80 -64 7 -84 13 -108 29 -15 9 -27 13 -27 7 0 -6 9
-16 20 -22 11 -6 20 -16 20 -23 0 -16 104 -15 143 1 30 13 46 40 30 51 -5 3
-18 21 -28 39 -11 17 -22 32 -25 32 -3 0 -11 4 -18 9 -10 6 -6 16 17 42 33 36
41 65 16 55 -8 -3 -15 -1 -15 3 0 15 33 22 41 10 4 -7 14 -9 23 -6 14 5 16 17
11 63 -3 31 -8 60 -11 65 -3 5 2 6 9 3 18 -6 30 -63 22 -97 -8 -29 6 -36 80
-44 37 -4 58 -12 79 -34 34 -32 31 -50 -2 -18 -13 11 -46 24 -77 29 -30 5 -63
13 -73 19 -16 8 -25 2 -57 -36 -26 -32 -35 -48 -26 -51 19 -6 81 -69 81 -82 0
-16 93 -5 124 15 13 9 27 27 30 41 4 13 10 24 15 24 5 0 2 -18 -6 -40 -9 -22
-22 -40 -28 -40 -7 0 -18 -7 -25 -15 -7 -9 -8 -15 -2 -15 5 0 8 -9 5 -20 -8
-29 -20 -33 -19 -7 1 18 -4 21 -24 19 -14 -1 -38 -2 -54 -2 -30 1 -74 -34 -56
-45 6 -4 5 -16 -1 -33 -6 -14 -7 -23 -3 -19 4 3 13 -1 21 -11 9 -12 12 -13 11
-3 -2 9 10 18 29 24 25 7 35 6 48 -6 9 -10 11 -18 5 -22 -6 -3 -13 1 -16 10
-6 14 -9 14 -28 -3 -11 -11 -34 -22 -51 -26 -97 -22 -130 -27 -148 -22 -15 4
-17 2 -8 -7 20 -20 11 -30 -14 -13 -13 9 -42 16 -63 16 -39 0 -92 -19 -92 -33
0 -5 -9 -6 -20 -2 -26 8 -68 -14 -49 -26 7 -4 19 -4 25 2 13 10 79 7 91 -4 11
-12 23 -8 23 7 0 8 9 13 24 12 14 0 22 -6 19 -14 -4 -9 -9 -10 -19 -1 -10 8
-14 8 -14 1 0 -6 8 -16 18 -22 15 -10 14 -11 -5 -7 -13 3 -26 1 -29 -4 -3 -5
-14 -4 -26 2 -11 6 -18 7 -15 2 3 -5 -11 -10 -31 -12 -20 -1 -47 -3 -59 -4
-11 -1 -19 -5 -17 -8 2 -4 -8 -9 -21 -12 -14 -2 -28 0 -31 5 -4 5 -10 5 -17 0
-7 -6 -37 -13 -67 -17 -30 -4 -72 -16 -94 -26 -37 -18 -38 -18 -22 0 22 24
143 80 184 84 20 2 46 17 67 37 33 32 34 35 18 52 -9 10 -32 28 -50 39 -30 18
-38 20 -64 9 -26 -11 -30 -18 -27 -44 2 -19 9 -32 20 -34 12 -2 15 2 11 18
-13 48 42 46 70 -2 14 -25 15 -28 2 -18 -13 11 -15 9 -15 -10 0 -17 -4 -21
-17 -16 -9 4 -20 1 -24 -5 -8 -13 -78 -40 -80 -30 -1 3 -2 23 -3 44 -2 22 -9
42 -16 47 -7 4 -9 13 -6 19 12 19 -50 12 -88 -9 -41 -25 -53 -48 -28 -57 9 -4
23 -13 30 -20 22 -22 36 -15 16 8 -20 22 -20 25 -2 47 28 34 78 -7 78 -63 -1
-23 -9 -35 -37 -53 -25 -16 -39 -20 -46 -13 -16 16 -23 14 -35 -14 -6 -14 -8
-25 -3 -25 5 0 7 -9 4 -21 -3 -11 -11 -18 -17 -16 -8 3 -10 -12 -6 -53 5 -55
5 -58 -13 -48 -14 7 -22 7 -27 -2 -5 -9 -9 -9 -14 -1 -11 18 -71 13 -90 -8
-13 -14 -14 -20 -4 -28 16 -12 75 -38 108 -48 14 -4 40 -16 58 -25 33 -18 77
-16 66 2 -10 16 16 26 45 18 15 -4 25 -14 25 -23 -3 -33 190 -37 223 -4 15 14
13 15 -27 1 -49 -17 -146 -10 -170 12 -12 12 -10 14 18 14 18 0 53 5 78 11 34
9 47 9 59 -1 10 -8 15 -9 15 -2 0 6 -8 16 -17 21 -17 10 -17 10 0 11 16 0 16
2 -3 28 -21 29 -60 134 -60 162 0 12 18 21 69 33 103 25 128 23 136 -11 3 -15
22 -46 43 -69 28 -32 41 -40 52 -33 22 14 28 12 32 -12 2 -12 8 -23 15 -25 8
-3 5 23 -8 83 -10 49 -19 89 -19 91 0 7 47 2 56 -6 5 -6 22 -12 38 -15 16 -3
34 -10 40 -16 15 -15 26 -12 26 9 0 20 -18 31 -51 31 -30 0 -22 17 11 23 37 8
131 -9 141 -25 5 -7 11 -10 14 -6 9 8 -24 38 -42 38 -22 0 -10 24 14 28 11 2
29 -5 40 -15 20 -17 21 -20 7 -68 -8 -27 -19 -69 -24 -93 -5 -23 -14 -51 -20
-61 -23 -43 -14 -51 55 -51 69 0 130 23 130 49 0 8 8 19 17 24 13 9 22 7 37
-7 21 -19 21 -19 21 2 0 21 31 39 49 27 5 -3 12 -1 16 4 3 6 34 8 70 6 40 -3
65 0 65 6 0 6 13 7 33 4 24 -5 39 -1 57 13 l24 19 -22 7 c-12 4 -19 13 -16 21
3 8 -1 12 -12 12 -10 -1 -20 6 -22 15 -3 14 1 16 15 11 10 -4 23 -14 30 -22 7
-9 13 -13 13 -9 0 4 13 3 29 -2 19 -5 33 -4 40 3 8 8 11 6 11 -6 0 -10 -11
-23 -25 -29 -38 -17 -30 -28 20 -28 l44 0 0 92 c0 61 -4 95 -12 100 -9 6 -9 8
0 8 9 0 12 51 13 190 0 136 -3 190 -11 190 -8 0 -8 4 -1 13 8 9 11 106 11 298
-1 156 -4 277 -7 269 -9 -25 -30 -41 -37 -30 -5 8 -11 7 -21 -1 -11 -9 -18 -8
-29 1 -13 11 -18 10 -31 -8 -20 -29 -37 -28 -29 1 5 16 1 13 -15 -10 -22 -34
-44 -45 -34 -18 4 8 1 15 -4 15 -6 0 -13 -9 -17 -19 -3 -12 -19 -21 -40 -25
-36 -7 -56 -31 -62 -76 -6 -43 -3 -99 7 -125 7 -17 6 -25 -1 -25 -6 0 -8 -7
-5 -15 6 -18 -23 -17 -37 0 -5 6 -6 2 -3 -8 7 -22 -22 -36 -34 -16 -5 7 -12
10 -15 7 -12 -12 4 -25 37 -32 26 -5 30 -9 18 -16 -13 -8 -12 -11 5 -24 11 -8
16 -18 12 -22 -4 -5 -13 -2 -18 6 -8 11 -12 12 -16 3 -2 -7 -11 -13 -19 -13
-8 0 -14 -4 -14 -9 0 -5 7 -8 16 -7 9 0 19 -4 21 -11 3 -7 -3 -9 -16 -6 -12 3
-28 0 -36 -7 -15 -13 -15 -13 -19 33 -1 6 -5 15 -10 19 -6 4 2 12 17 19 28 13
34 24 17 34 -5 3 -10 15 -10 26 0 11 -4 18 -10 14 -5 -3 -6 -15 -1 -28 7 -18
1 -29 -30 -59 -39 -36 -61 -38 -34 -2 19 25 19 35 0 28 -8 -4 -15 -1 -15 5 0
14 33 14 47 0 8 -8 13 -8 18 0 3 6 -1 18 -9 27 -9 8 -16 12 -16 7 0 -4 -5 0
-11 10 -12 20 -31 23 -23 3 3 -7 -2 -16 -11 -20 -9 -3 -14 -10 -11 -15 3 -5
-4 -11 -15 -14 -12 -3 -18 -10 -15 -16 4 -6 12 -8 19 -5 16 6 16 -78 0 -97 -7
-8 -10 -25 -6 -37 3 -13 1 -22 -6 -22 -6 0 -11 9 -11 21 0 13 -4 18 -11 13 -8
-5 -10 2 -6 22 3 16 1 37 -4 46 -6 12 -6 18 1 18 5 0 10 7 10 15 0 18 -16 20
-23 3 -4 -10 -8 -9 -16 2 -9 13 -12 12 -17 -7 -6 -21 -8 -21 -27 -8 -12 8 -36
15 -54 15 -18 0 -33 4 -33 10 0 5 13 8 30 6 43 -5 26 13 -20 20 -21 4 -41 13
-44 21 -4 9 -13 13 -22 9 -14 -5 -15 -4 -4 9 9 11 10 19 3 26 -8 8 -13 5 -18
-10 -10 -32 -101 -108 -171 -142 l-65 -32 -57 22 c-117 46 -134 55 -162 88
-50 56 -57 81 -63 211 -4 95 -2 122 8 122 14 0 41 57 37 77 -2 7 2 22 8 33 6
11 13 34 15 50 7 54 78 129 111 116 8 -3 14 -2 14 2 0 4 20 7 45 7 25 0 45 -3
45 -7 0 -5 -5 -8 -12 -8 -9 0 -9 -3 -1 -11 9 -9 24 -7 61 6 48 17 50 17 75 -1
31 -23 77 -112 112 -218 23 -67 26 -90 21 -145 l-7 -66 29 55 c24 46 29 66 28
115 -1 33 2 74 7 90 6 21 5 45 -4 75 -7 25 -13 47 -14 50 0 3 -11 25 -24 49
-25 49 -37 62 -90 104 -20 16 -36 34 -36 40 0 6 -20 12 -45 14 -25 1 -69 5
-98 9 -37 5 -76 1 -128 -11 -40 -9 -81 -15 -89 -11 -9 3 -13 2 -10 -4 3 -6 0
-10 -8 -10 -7 0 -24 -10 -36 -21 -19 -18 -25 -19 -32 -8 -7 12 -9 11 -9 -1 0
-9 -14 -24 -31 -34 -18 -11 -29 -14 -25 -8 3 6 2 14 -4 17 -6 4 -9 16 -6 28 3
13 1 11 -6 -5 -7 -16 -15 -28 -20 -28 -4 0 -5 -6 -2 -14 3 -8 1 -17 -4 -20
-14 -8 -35 21 -26 35 4 8 3 9 -4 5 -7 -4 -12 -1 -12 8 0 9 -7 16 -15 16 -8 0
-14 5 -13 12 2 7 -2 12 -9 13 -15 0 -30 15 -15 15 6 0 9 7 5 16 -4 11 -8 12
-13 4 -8 -14 -33 13 -37 41 -4 26 16 24 26 -3 7 -19 9 -15 15 25 8 49 18 59
35 30 5 -10 13 -14 17 -10 12 12 -10 42 -35 45 -25 4 -25 6 -8 33 10 17 9 22
-6 33 -9 7 -17 18 -17 25 0 6 -4 11 -8 11 -5 0 -14 10 -21 23 l-11 22 6 -23
c6 -24 -22 -62 -46 -62 -5 0 -10 -4 -10 -10 0 -5 -9 -10 -20 -10 -20 0 -20 0
1 29 14 20 27 27 38 23 14 -5 14 -4 -1 11 -9 9 -19 26 -23 36 -3 10 -15 21
-26 24 -17 5 -19 9 -10 26 6 11 23 26 38 33 15 7 29 22 31 33 2 11 0 16 -5 10
-12 -16 -43 -14 -43 2 0 11 -3 11 -14 1 -18 -17 -9 -31 15 -25 10 3 21 2 24
-3 3 -4 -6 -11 -20 -14 -29 -7 -67 -41 -57 -50 3 -4 -8 -6 -25 -4 -31 2 -83
-18 -83 -33 0 -4 13 -10 29 -14 34 -7 85 -55 58 -55 -9 0 -19 5 -22 10 -3 6
-15 10 -26 10 -10 0 -19 6 -19 14 0 8 -14 18 -32 21 -18 4 -36 13 -40 19 -13
19 -9 46 7 46 10 0 15 -7 13 -17 -2 -14 3 -17 22 -15 13 1 28 9 33 17 4 8 14
15 21 15 9 0 12 9 8 25 -5 30 -23 32 -40 5 -7 -12 -18 -18 -24 -14 -7 4 -5 10
6 16 9 5 16 16 16 23 0 8 7 15 15 15 8 0 15 5 15 10 0 6 7 10 15 10 8 0 15 4
15 9 0 5 9 13 20 16 14 4 20 15 19 33 0 24 -1 25 -10 7 l-9 -20 2 20 c2 11 -2
27 -7 35 -7 12 -3 11 18 -2 35 -23 51 -23 38 0 -5 9 -11 22 -13 27 -1 6 -11
10 -20 9 -10 0 -18 5 -18 12 0 17 32 27 41 13 4 -6 12 -8 19 -4 7 4 15 3 19
-3 4 -6 12 -8 18 -4 16 10 5 52 -12 52 -8 0 -20 7 -29 15 -13 14 -16 14 -24
-1 -7 -12 -11 -13 -16 -5 -9 14 11 41 31 41 7 0 16 -6 19 -14 4 -11 13 -12 35
-6 28 8 33 6 30 -14 -1 -5 5 -6 14 -2 9 3 18 -1 21 -9 4 -8 13 -15 21 -15 8 0
11 -5 8 -11 -4 -6 2 -13 14 -16 24 -6 28 -23 6 -23 -22 0 -18 -18 5 -25 36
-11 21 -23 -20 -15 -43 8 -56 -6 -15 -16 14 -3 25 -13 25 -22 0 -11 6 -8 21 9
12 13 25 23 30 21 13 -3 11 5 -7 23 -21 21 -11 45 15 38 15 -4 21 -1 21 11 0
9 6 16 13 17 6 0 3 4 -8 8 -11 5 -23 4 -26 -1 -4 -6 -9 -6 -13 1 -4 6 -12 9
-17 6 -5 -4 -9 -1 -9 4 0 6 -6 11 -14 11 -8 0 -16 7 -20 15 -3 8 -14 15 -25
15 -11 0 -26 7 -35 15 -8 8 -22 12 -30 9 -26 -10 -18 12 9 24 21 10 28 9 45
-8 11 -11 24 -20 29 -20 5 0 16 -3 25 -6 21 -8 20 8 -2 32 -19 19 -25 54 -11
54 4 0 13 -13 21 -30 15 -35 24 -38 33 -9 5 16 10 18 21 8 11 -9 20 -8 39 5
14 9 30 14 34 11 5 -3 21 -1 35 4 20 8 26 7 29 -7 4 -16 5 -16 6 1 0 9 8 17
16 17 8 0 15 7 15 15 0 8 -4 15 -10 15 -16 0 -12 26 6 41 15 12 16 11 10 -7
-4 -14 0 -26 14 -39 11 -10 20 -24 20 -32 0 -15 16 -18 24 -4 4 5 0 12 -6 14
-7 3 -4 6 7 6 11 0 26 -3 33 -7 17 -11 4 -45 -14 -38 -8 3 -14 2 -14 -3 0 -5
-12 -20 -27 -35 -23 -23 -25 -30 -15 -46 13 -22 2 -33 -23 -23 -13 4 -16 2
-13 -8 9 -27 42 -14 73 31 31 44 32 45 82 42 28 -2 54 1 57 7 5 7 15 7 32 0
22 -8 25 -7 20 6 -4 10 1 15 16 15 12 0 18 3 15 7 -10 9 12 33 26 27 7 -2 21
10 32 27 20 31 53 55 62 46 3 -3 5 -22 6 -42 1 -45 37 -76 62 -55 8 7 15 19
15 27 0 10 6 12 22 8 17 -6 20 -4 15 10 -4 9 -7 24 -7 32 0 11 -7 14 -24 9
-24 -6 -43 15 -30 35 19 31 80 -33 71 -77 -6 -31 4 -37 30 -19 17 12 19 22 15
67 -3 29 -10 56 -16 60 -8 5 -7 8 2 8 7 0 10 5 7 10 -4 6 7 13 24 16 26 5 28
9 18 24 -6 11 -15 16 -19 14 -4 -3 -8 0 -8 6 0 7 6 10 14 7 8 -3 22 0 32 8 13
9 23 10 31 3 21 -17 15 -25 -17 -20 -38 5 -38 -2 2 -47 30 -34 31 -36 11 -39
-19 -3 -21 -10 -21 -69 0 -42 5 -78 15 -97 l16 -31 15 35 c13 31 12 38 -1 62
-13 23 -13 27 -1 32 8 3 14 17 14 31 0 16 4 24 10 20 6 -4 8 -21 4 -42 -6 -33
-5 -34 13 -25 35 19 47 40 33 57 -18 21 -6 30 14 10 12 -12 20 -13 34 -6 11 6
22 7 26 4 3 -3 6 3 6 15 0 13 6 22 15 22 11 0 15 -12 15 -44 0 -25 6 -48 14
-55 12 -10 16 -5 26 24 6 19 18 35 25 35 8 0 17 5 20 10 9 15 -22 60 -41 60
-11 0 -14 6 -9 23 11 33 25 45 25 19 0 -26 1 -26 35 -10 20 9 28 9 38 -1 9
-10 7 -16 -10 -31 -29 -23 -29 -42 -1 -38 20 3 24 -3 28 -39 7 -48 25 -74 46
-66 18 7 68 103 54 103 -5 0 -10 7 -10 15 0 21 48 38 92 32 31 -4 40 -1 52 18
9 13 25 26 36 30 19 6 20 14 20 200 0 145 -3 195 -12 198 -10 4 -10 6 0 6 7 1
12 15 12 36 l0 35 -174 -1 -173 0 -11 -25 c-14 -30 -30 -31 -34 -1 l-3 22
-281 3 -280 2 -20 -41 c-20 -44 -37 -55 -42 -28 -2 10 5 19 18 22 11 3 20 10
20 16 0 9 -5 9 -20 1 -14 -7 -20 -7 -20 0 0 5 5 10 10 10 6 0 10 5 10 10 0 7
-111 10 -330 10 -201 -1 -330 -5 -330 -11 0 -5 -7 -9 -15 -9 -8 0 -15 5 -15
10 0 6 -16 10 -35 10 -38 0 -48 -19 -15 -27 20 -5 29 -43 10 -43 -5 0 -10 4
-10 9 0 10 -26 9 -36 -2 -12 -12 -24 -8 -24 8 0 8 -6 12 -14 9 -20 -7 -14 -37
9 -51 27 -17 38 -16 32 2 -4 8 -2 17 3 20 6 4 10 2 10 -3 0 -4 18 -20 40 -35
l40 -26 16 35 c18 38 28 42 43 17 9 -16 10 -16 11 5 0 26 15 29 24 5 3 -10 9
-24 12 -30 3 -8 -2 -13 -14 -13 -12 0 -22 -9 -25 -21 -4 -15 -11 -20 -21 -16
-9 4 -16 2 -16 -3 0 -6 16 -10 35 -10 41 0 44 -12 10 -44 -14 -13 -25 -27 -25
-32 0 -5 5 -2 10 6 8 12 11 13 19 1 5 -8 18 -11 32 -7 13 3 18 3 11 0 -17 -8
-15 -24 4 -24 8 0 12 -5 9 -11 -5 -7 -14 -4 -27 7 -15 15 -23 16 -38 6 -15 -9
-21 -9 -27 2 -16 26 -45 34 -64 18 -15 -13 -15 -17 -4 -29 16 -16 32 -17 37
-2 4 12 58 -9 58 -23 0 -11 -7 -10 -31 2 -26 14 -54 -10 -36 -31 10 -11 9 -11
-5 -1 -11 9 -18 10 -23 2 -3 -5 1 -13 9 -16 23 -9 20 -51 -4 -66 -11 -7 -20
-17 -20 -21 0 -5 -7 -15 -15 -23 -13 -14 -15 -13 -15 5 0 12 5 21 11 21 5 0 7
5 3 11 -4 7 -8 32 -9 56 -1 24 -7 49 -15 56 -10 10 -11 7 -6 -15 3 -14 9 -34
12 -45 6 -17 6 -17 -11 -1 -10 9 -18 32 -19 50 -2 46 -35 103 -99 170 -77 81
-157 103 -279 77 -61 -13 -163 -58 -263 -118 -38 -22 -75 -41 -80 -41 -6 0
-21 9 -34 21 l-22 21 -26 -23 c-35 -33 -46 -57 -39 -85 4 -16 11 -22 24 -18
16 5 16 5 0 -6 -10 -6 -18 -18 -18 -26 0 -13 3 -13 22 0 32 23 52 20 86 -12
29 -27 29 -29 24 -103 -4 -73 -3 -77 24 -107 16 -17 57 -42 92 -57 l62 -25 54
34 c29 18 62 45 73 60 38 48 53 35 53 -46 0 -40 4 -80 10 -88 6 -10 2 -19 -18
-32 -38 -25 -59 -22 -99 12 -18 17 -41 30 -51 29 -10 0 -12 -3 -4 -6 23 -9 12
-22 -15 -17 -68 11 -75 14 -63 29 21 25 1 17 -41 -17 -21 -17 -39 -36 -39 -42
0 -6 -11 -23 -23 -38 -22 -25 -27 -26 -61 -17 -20 6 -45 7 -55 4 -24 -7 -61
49 -61 95 0 21 -4 30 -12 27 -7 -2 -12 -13 -11 -25 1 -11 -4 -26 -13 -32 -12
-11 -13 -10 -8 4 3 9 2 16 -4 16 -5 0 -8 20 -6 45 1 26 -1 43 -7 40 -13 -8
-11 -2 6 31 20 39 19 56 -5 82 -11 12 -20 28 -20 36 0 23 11 46 20 41 4 -3 8
5 7 18 -1 59 8 114 20 129 15 17 2 35 -17 23 -13 -8 -7 29 8 47 6 8 9 23 6 34
-4 15 2 26 22 39 l27 17 -6 -30 c-4 -20 -2 -32 6 -36 9 -3 9 -7 1 -13 -29 -22
-40 -73 -14 -73 9 0 34 95 32 123 0 9 3 15 7 12 5 -2 22 27 39 65 l31 70 -343
0 -342 0 1 -28 c2 -59 -34 -97 -64 -67 -15 15 -14 15 2 9 9 -3 17 -1 17 4 0 6
-9 14 -20 17 -21 7 -28 25 -10 25 6 0 10 9 10 20 0 19 -7 20 -211 20 l-211 0
6 -27 c6 -27 6 -27 -9 -9 -8 11 -15 23 -15 28 0 4 -9 8 -21 8 -11 0 -17 -4
-14 -10 3 -5 2 -10 -2 -10 -5 0 -14 -9 -21 -20 -11 -18 -10 -25 7 -48 10 -15
22 -49 26 -75 9 -55 -12 -210 -27 -201 -5 4 -8 15 -5 25 3 10 1 22 -4 25 -5 3
-9 29 -9 57 0 53 -40 194 -66 235 -12 18 -23 22 -69 22 l-55 0 0 -64z m2625
44 c3 -5 1 -10 -4 -10 -6 0 -11 5 -11 10 0 6 2 10 4 10 3 0 8 -4 11 -10z m139
-23 c9 -34 7 -40 -10 -33 -8 3 -24 1 -35 -4 -16 -9 -19 -7 -19 12 -1 22 -1 22
-15 4 -8 -11 -15 -14 -15 -7 0 7 -4 10 -9 6 -5 -3 -13 0 -16 6 -4 6 2 13 14
16 12 3 21 9 21 13 0 3 17 7 39 8 32 2 40 -2 45 -21z m-174 3 c0 -5 -4 -10
-10 -10 -5 0 -10 5 -10 10 0 6 5 10 10 10 6 0 10 -4 10 -10z m1174 -6 c3 -8 2
-12 -4 -9 -6 3 -10 10 -10 16 0 14 7 11 14 -7z m-3138 -46 c-3 -13 -5 -33 -5
-46 -1 -13 -5 -20 -11 -17 -11 7 -14 98 -3 109 11 11 24 -20 19 -46z m1908 31
c-3 -5 -10 -7 -15 -3 -5 3 -7 10 -3 15 3 5 10 7 15 3 5 -3 7 -10 3 -15z m1046
-4 c0 -8 -7 -15 -15 -15 -8 0 -15 -4 -15 -10 0 -5 -11 -9 -25 -8 -30 3 -30 3
-7 27 21 23 62 27 62 6z m-1080 -24 c0 -10 -7 -24 -15 -31 -12 -10 -15 -10
-15 4 0 9 4 16 9 16 5 0 7 10 3 22 -3 14 -2 19 6 14 7 -4 12 -15 12 -25z m365
19 c3 -5 -1 -10 -10 -10 -9 0 -13 5 -10 10 3 6 8 10 10 10 2 0 7 -4 10 -10z
m368 -3 c3 -7 -1 -21 -9 -32 -14 -18 -14 -18 -28 1 -10 13 -11 23 -4 31 14 17
35 17 41 0z m-1976 -19 c-3 -8 -6 -5 -6 6 -1 11 2 17 5 13 3 -3 4 -12 1 -19z
m2128 12 c3 -6 -1 -7 -9 -4 -18 7 -21 14 -7 14 6 0 13 -4 16 -10z m-2797 -41
c1 -38 -22 -34 -26 4 -2 18 1 27 11 27 9 0 14 -11 15 -31z m1988 9 c4 -13 2
-24 -4 -26 -5 -1 -8 -12 -5 -22 6 -24 -9 -26 -27 -5 -10 12 -8 18 11 35 17 14
18 18 7 14 -12 -4 -18 -1 -18 10 0 24 28 19 36 -6z m114 -12 c-1 -20 -2 -20
-14 -3 -18 24 -29 21 -21 -5 5 -19 4 -20 -5 -6 -14 23 -3 47 21 41 11 -3 19
-14 19 -27z m85 24 c3 -5 1 -10 -4 -10 -6 0 -11 5 -11 10 0 6 2 10 4 10 3 0 8
-4 11 -10z m105 6 c0 -3 -4 -8 -10 -11 -5 -3 -10 -1 -10 4 0 6 5 11 10 11 6 0
10 -2 10 -4z m412 -48 c-9 -9 -12 -8 -12 8 0 11 -4 25 -10 32 -5 7 0 3 12 -8
17 -15 20 -22 10 -32z m458 37 c0 -19 -21 -65 -30 -65 -16 0 -16 49 -1 64 19
20 31 20 31 1z m90 0 c7 -8 18 -15 25 -15 7 0 18 -7 25 -15 11 -13 11 -18 0
-28 -9 -8 -11 -8 -7 -1 7 13 -19 27 -33 19 -5 -3 -11 -1 -15 5 -3 5 -16 10
-28 11 -12 0 -16 3 -9 6 6 2 12 11 12 19 0 18 14 18 30 -1z m80 -5 c0 -5 -7
-10 -15 -10 -8 0 -15 5 -15 10 0 6 7 10 15 10 8 0 15 -4 15 -10z m35 -10 c3
-5 1 -10 -4 -10 -6 0 -11 5 -11 10 0 6 2 10 4 10 3 0 8 -4 11 -10z m-1065 -10
c0 -5 10 -18 22 -29 19 -18 19 -21 5 -27 -11 -4 -17 -18 -17 -40 0 -19 -2 -34
-4 -34 -13 0 -56 49 -56 64 0 9 -8 16 -17 16 -14 0 -13 4 7 25 12 13 27 22 31
19 5 -3 9 0 9 5 0 6 5 11 10 11 6 0 10 -4 10 -10z m280 -10 c0 -6 -10 -14 -22
-19 -13 -5 -30 -18 -38 -30 -8 -12 -19 -21 -24 -21 -6 0 -5 5 2 12 7 7 12 20
12 30 0 13 8 18 25 18 14 0 25 5 25 10 0 6 5 10 10 10 6 0 10 -5 10 -10z m58
-7 c-4 -22 -22 -20 -26 1 -2 10 3 16 13 16 10 0 15 -7 13 -17z m-734 -14 c-3
-6 -13 -8 -21 -4 -13 4 -14 3 -3 -10 7 -9 10 -18 6 -22 -3 -3 -6 -1 -6 5 0 7
-8 12 -17 12 -15 1 -14 4 6 20 23 19 47 18 35 -1z m-1234 1 c0 -5 -5 -10 -11
-10 -5 0 -7 5 -4 10 3 6 8 10 11 10 2 0 4 -4 4 -10z m1370 -6 c0 -8 -4 -12
-10 -9 -5 3 -10 10 -10 16 0 5 5 9 10 9 6 0 10 -7 10 -16z m139 2 c9 -10 6
-25 -11 -65 -13 -28 -26 -51 -30 -51 -3 0 -9 18 -13 40 -5 30 -2 47 9 65 19
28 29 31 45 11z m286 3 c10 -15 13 -59 5 -59 -14 0 -52 49 -45 59 8 14 32 14
40 0z m324 -21 c1 6 5 12 11 12 5 0 8 -21 7 -46 -2 -41 -5 -47 -34 -59 -41
-18 -47 -9 -22 32 12 18 18 41 15 49 -3 9 -3 21 1 27 4 7 9 3 14 -9 4 -10 8
-13 8 -6z m485 6 c10 -26 7 -34 -14 -34 -13 0 -20 7 -20 18 0 33 23 44 34 16z
m-2581 -10 c11 -11 -3 -24 -18 -18 -8 4 -12 10 -9 15 6 11 18 12 27 3z m725
-30 c24 -15 47 -35 49 -45 3 -11 8 -19 12 -19 4 0 7 -35 7 -77 l-1 -78 -72 0
c-84 1 -97 -15 -30 -34 112 -34 116 -50 6 -26 -99 22 -128 33 -167 67 -40 34
-130 81 -141 73 -8 -4 -116 31 -130 42 -3 2 1 9 7 15 9 9 12 9 12 0 0 -6 15
-15 33 -20 17 -6 41 -13 51 -18 13 -5 17 -4 12 4 -11 19 50 -4 105 -39 56 -37
79 -44 79 -23 0 8 -4 14 -9 14 -4 0 -23 14 -40 31 -18 17 -52 39 -76 50 -69
31 -72 42 -17 68 122 57 229 62 310 15z m546 27 c9 -13 -19 -32 -38 -25 -9 3
-16 11 -16 16 0 6 7 8 15 4 8 -3 15 -1 15 4 0 12 17 13 24 1z m116 -1 c0 -5
-4 -10 -10 -10 -5 0 -10 5 -10 10 0 6 5 10 10 10 6 0 10 -4 10 -10z m350 -10
c0 -5 -4 -10 -10 -10 -5 0 -10 5 -10 10 0 6 5 10 10 10 6 0 10 -4 10 -10z
m170 0 c0 -5 -4 -10 -10 -10 -5 0 -10 5 -10 10 0 6 5 10 10 10 6 0 10 -4 10
-10z m380 3 c0 -9 -27 -49 -40 -59 -11 -9 -17 -9 -22 -1 -10 17 21 63 43 63
10 0 19 -2 19 -3z m-1135 -13 c3 -5 -1 -10 -10 -10 -9 0 -13 5 -10 10 3 6 8
10 10 10 2 0 7 -4 10 -10z m1149 -14 c-3 -9 -10 -16 -15 -16 -5 0 -4 9 3 20
14 22 21 20 12 -4z m-2344 5 c0 -6 -4 -13 -10 -16 -5 -3 -10 1 -10 9 0 9 5 16
10 16 6 0 10 -4 10 -9z m1330 -9 c0 -11 -37 -32 -44 -25 -12 12 -6 22 9 17 8
-4 15 -1 15 5 0 6 5 11 10 11 6 0 10 -3 10 -8z m-1105 -22 c18 -20 15 -38 -4
-25 -15 9 -33 45 -23 45 5 0 17 -9 27 -20z m-655 -12 c0 -21 -14 -32 -67 -55
-20 -8 -15 22 7 48 16 20 19 21 20 7 0 -10 5 -18 11 -18 5 0 7 5 4 10 -7 12 2
30 16 30 5 0 9 -10 9 -22z m3000 -32 c0 -17 -10 -28 -32 -39 -18 -9 -36 -13
-40 -11 -4 3 -18 -4 -30 -16 -25 -23 -41 -22 -46 3 -2 10 3 17 12 17 9 0 16 5
16 10 0 7 17 9 47 6 25 -4 43 -3 40 1 -4 3 -2 12 3 18 8 9 6 14 -5 18 -8 4
-12 13 -9 21 9 23 44 1 44 -28z m-107 4 c3 -13 -2 -19 -22 -23 -33 -7 -34 -5
-22 26 11 30 36 28 44 -3z m-2455 3 c2 -8 -5 -13 -17 -13 -21 0 -35 13 -24 24
10 10 36 3 41 -11z m1292 7 c0 -5 -4 -10 -10 -10 -5 0 -10 5 -10 10 0 6 5 10
10 10 6 0 10 -4 10 -10z m170 6 c0 -2 -7 -7 -16 -10 -8 -3 -12 -2 -9 4 6 10
25 14 25 6z m180 -28 c0 -6 3 -8 7 -5 3 4 13 2 20 -5 11 -9 17 -9 24 3 7 12 9
11 9 -3 0 -9 4 -19 9 -22 5 -4 7 2 4 12 -5 22 12 38 54 46 22 5 34 3 40 -7 4
-8 17 -16 27 -18 11 -3 24 -18 31 -38 9 -27 17 -35 40 -37 17 -2 31 -8 33 -14
2 -5 9 -7 14 -4 7 4 8 2 4 -4 -4 -7 -14 -12 -22 -12 -8 0 -15 -8 -15 -17 -1
-17 -2 -17 -6 0 -6 24 -23 21 -23 -5 0 -17 -3 -19 -12 -10 -7 7 -20 12 -30 12
-11 0 -18 7 -18 19 0 14 -10 21 -35 25 -39 8 -42 14 -20 56 l16 30 -32 0 c-27
0 -30 -3 -25 -23 6 -25 -29 -58 -36 -35 -2 6 -9 8 -16 4 -17 -10 -2 -38 18
-33 15 4 17 -1 14 -29 -1 -19 1 -34 7 -34 5 0 9 7 9 15 0 21 16 19 26 -2 8
-21 14 -73 7 -73 -27 0 -80 71 -67 91 3 5 1 9 -4 9 -15 0 -22 -26 -9 -39 13
-13 3 -26 -13 -16 -7 4 -9 18 -6 30 3 13 1 27 -5 30 -7 5 -9 -11 -7 -46 3 -49
5 -53 28 -54 59 -3 70 -6 70 -20 0 -8 -7 -15 -15 -15 -8 0 -31 -9 -51 -21 -25
-14 -40 -17 -47 -10 -7 7 -5 12 6 17 9 3 14 10 11 16 -9 13 -34 -11 -34 -33 0
-11 -6 -19 -14 -19 -7 0 -27 -3 -44 -6 -24 -5 -31 -2 -36 12 -4 15 -15 19 -47
17 -23 0 -45 -7 -50 -15 -5 -7 -14 -14 -21 -14 -7 -1 -17 -2 -22 -3 -5 0 -2
-9 5 -18 13 -15 12 -16 -8 -11 -14 4 -23 2 -23 -5 0 -7 -4 -5 -10 3 -7 11 -4
17 11 22 12 5 19 15 17 25 -2 12 4 18 17 19 32 2 52 14 52 32 0 9 -5 20 -11
24 -14 9 -3 19 25 21 13 0 26 4 29 7 3 4 17 10 31 13 19 5 29 2 33 -8 4 -11
-3 -15 -27 -16 l-32 -1 30 -7 c23 -6 35 -3 53 13 19 17 22 18 16 3 -4 -12 -1
-17 10 -17 9 0 16 7 16 16 0 10 6 14 14 11 10 -4 13 -1 9 8 -3 8 -10 12 -16 8
-6 -4 -8 0 -4 10 6 17 -28 45 -40 33 -3 -3 2 -8 11 -12 9 -3 14 -10 11 -15 -6
-9 -74 21 -75 34 0 4 9 7 19 7 11 0 21 6 24 13 3 8 10 7 26 -7 25 -23 41 -14
17 10 -14 13 -14 19 -4 32 11 13 10 15 -4 9 -10 -3 -20 -2 -23 3 -3 5 6 12 21
16 22 6 24 8 10 16 -9 5 -16 16 -16 24 0 12 4 12 20 4 11 -6 20 -16 20 -22z
m620 8 c0 -8 -4 -18 -10 -21 -5 -3 -10 -14 -10 -24 0 -11 -9 -29 -20 -42 -23
-29 -27 -13 -4 19 9 13 14 34 11 47 -4 22 4 32 26 34 4 1 7 -5 7 -13z m110 -6
c0 -29 -53 -85 -73 -77 -24 9 -21 21 17 61 37 40 56 46 56 16z m-406 -26 c20
-3 36 -10 36 -15 0 -5 7 -6 15 -3 24 9 19 -32 -7 -58 -16 -16 -23 -18 -26 -9
-2 7 1 17 8 21 9 5 9 9 1 14 -6 4 -11 1 -11 -6 -1 -8 -9 -4 -19 10 -11 12 -29
22 -40 22 -15 0 -21 6 -21 21 0 14 5 19 14 16 8 -3 31 -9 50 -13z m-780 -9 c4
-11 0 -14 -17 -11 -12 3 -26 5 -32 5 -13 2 16 21 31 21 7 0 14 -7 18 -15z
m256 11 c0 -2 -7 -9 -15 -16 -12 -10 -15 -10 -15 4 0 9 7 16 15 16 8 0 15 -2
15 -4z m-2064 -27 c3 -6 0 -15 -7 -20 -23 -14 -35 -10 -35 11 0 22 30 28 42 9z
m574 -39 c5 0 13 6 17 13 4 6 16 19 27 27 18 14 18 13 11 -19 -4 -19 -14 -50
-22 -69 l-15 -36 -19 25 c-12 16 -18 39 -17 69 1 29 2 35 5 18 2 -16 8 -28 13
-28z m1170 46 c0 -11 -19 -15 -25 -6 -3 5 1 10 9 10 9 0 16 -2 16 -4z m-1800
-16 c0 -5 -2 -10 -4 -10 -3 0 -8 5 -11 10 -3 6 -1 10 4 10 6 0 11 -4 11 -10z
m2060 -5 c0 -8 -6 -15 -14 -15 -8 0 -13 -11 -13 -27 0 -18 -10 -35 -29 -49
-29 -24 -47 -23 -37 1 3 8 0 15 -6 15 -22 0 -11 18 15 24 15 4 24 9 21 12 -8
8 34 54 50 54 7 0 13 -7 13 -15z m-980 -3 c0 -5 10 -14 23 -21 13 -7 15 -9 4
-6 -10 3 -33 5 -50 5 -29 0 -30 1 -11 15 22 16 34 19 34 7z m1106 -7 c-22 -17
-46 -20 -46 -6 0 10 22 18 50 20 11 0 10 -4 -4 -14z m654 6 c0 -21 -13 -41
-26 -41 -17 0 -18 22 -2 38 14 14 28 16 28 3z m-2309 -38 c-10 -17 -10 -16
-11 3 0 23 13 41 18 25 2 -6 -1 -18 -7 -28z m2641 -13 c2 -17 -2 -26 -14 -28
-19 -4 -24 21 -12 53 8 20 21 8 26 -25z m-304 13 c-3 -39 3 -54 25 -62 19 -8
22 -14 19 -60 -2 -28 -8 -51 -13 -51 -16 0 -21 27 -10 48 14 27 -13 66 -42 58
-12 -3 -30 3 -46 16 -20 16 -21 19 -6 13 35 -13 49 -11 53 10 7 43 23 65 20
28z m251 -31 c1 -7 -3 -10 -9 -7 -5 3 -10 18 -9 33 0 24 1 25 9 7 5 -11 9 -26
9 -33z m-1058 5 c-16 -16 -26 0 -10 19 9 11 15 12 17 4 2 -6 -1 -17 -7 -23z
m59 4 c0 -20 -6 -30 -20 -34 -17 -4 -19 -1 -14 21 13 52 34 60 34 13z m-1106
-1 c19 -7 26 -6 26 2 0 9 3 9 12 0 7 -7 19 -12 28 -12 9 0 26 -9 37 -19 12
-11 24 -17 27 -14 3 4 6 1 6 -5 0 -17 16 -15 35 4 17 17 42 13 51 -9 7 -20
-107 -137 -135 -137 -27 0 -124 45 -142 66 -19 23 -14 105 7 121 21 16 17 15
48 3z m1936 0 c0 -5 7 -7 15 -4 11 5 15 -1 15 -25 0 -38 -7 -40 -20 -5 -8 19
-15 24 -30 19 -19 -6 -27 5 -13 18 10 10 33 8 33 -3z m-2413 -22 c-3 -8 -6 -5
-6 6 -1 11 2 17 5 13 3 -3 4 -12 1 -19z m623 1 c0 -5 -7 -9 -15 -9 -15 0 -20
12 -9 23 8 8 24 -1 24 -14z m850 -39 c0 -5 5 -10 11 -10 5 0 7 5 4 10 -3 6 -2
10 3 10 19 0 20 -29 2 -45 -16 -15 -22 -16 -35 -5 -13 11 -14 10 -9 -4 4 -12
0 -16 -16 -16 -11 0 -19 4 -16 9 4 5 1 11 -6 13 -7 3 -9 12 -5 22 6 15 10 16
23 5 8 -7 14 -8 13 -3 -3 18 1 24 16 24 8 0 15 -4 15 -10z m90 0 c0 -5 -5 -10
-11 -10 -5 0 -7 5 -4 10 3 6 8 10 11 10 2 0 4 -4 4 -10z m-26 -25 c3 -8 1 -15
-4 -15 -6 0 -10 7 -10 15 0 8 2 15 4 15 2 0 6 -7 10 -15z m-284 -24 c0 -30
-22 -57 -39 -47 -5 3 -7 -2 -5 -12 3 -9 1 -28 -4 -42 -8 -22 -9 -20 -16 19 -5
36 -9 41 -26 36 -11 -4 -20 -2 -20 3 0 16 29 35 45 28 17 -6 21 9 5 19 -21 13
-9 25 25 25 32 0 35 -3 35 -29z m150 -17 c12 -21 12 -27 1 -33 -11 -7 -10 -11
4 -19 21 -11 14 -42 -10 -42 -14 0 -19 11 -16 37 1 7 -3 21 -9 32 -10 19 -4
51 9 51 4 0 14 -12 21 -26z m-1504 3 c16 6 19 -13 4 -22 -10 -6 -40 17 -40 31
0 5 5 3 11 -3 6 -6 18 -9 25 -6z m1624 9 c0 -2 -7 -9 -15 -16 -12 -10 -15 -10
-15 4 0 9 7 16 15 16 8 0 15 -2 15 -4z m-1777 -24 c21 -23 32 -147 17 -187
l-11 -29 -14 28 c-8 16 -15 37 -15 47 0 10 -4 21 -10 24 -5 3 -11 23 -11 43
-1 27 -3 31 -6 12 -8 -43 -23 -47 -23 -7 0 26 4 37 15 37 8 0 15 5 15 11 0 5
-4 8 -9 5 -5 -4 -7 3 -4 14 7 25 35 26 56 2z m1104 -3 c51 -29 64 -40 57 -50
-3 -5 11 -16 30 -24 36 -15 45 -32 26 -51 -5 -5 -11 -21 -13 -34 -5 -31 -35
-37 -90 -19 -58 19 -77 50 -77 124 0 84 6 88 67 54z m474 7 c-13 -16 7 -39 30
-34 17 4 13 -43 -5 -54 -25 -17 -56 -8 -67 19 -6 15 -6 29 -1 32 5 3 12 16 16
29 4 12 14 22 23 22 12 0 13 -3 4 -14z m-406 -6 c3 -5 1 -10 -4 -10 -6 0 -11
5 -11 10 0 6 2 10 4 10 3 0 8 -4 11 -10z m569 -6 c9 -23 8 -24 -11 -17 -13 5
-15 2 -11 -15 5 -19 3 -20 -13 -11 -23 12 -23 14 -2 39 21 24 29 25 37 4z
m518 -10 c-13 -9 -32 -14 -43 -11 -10 3 -19 1 -19 -5 0 -5 -4 -7 -10 -3 -5 3
-16 -7 -24 -23 -17 -32 -56 -49 -68 -29 -5 8 -8 7 -8 -5 0 -30 -61 -54 -87
-34 -9 6 -13 3 -13 -9 0 -15 -2 -15 -16 -4 -14 12 -14 14 6 21 12 4 27 5 33 1
8 -5 8 -2 0 8 -10 12 -10 18 -1 27 20 20 41 15 35 -8 -6 -22 -5 -23 17 -14 9
3 16 11 16 16 0 6 8 17 18 25 16 13 15 13 -7 7 -14 -4 -21 -2 -17 4 12 21 45
20 52 0 5 -15 8 -17 14 -8 5 7 6 18 4 25 -3 7 16 15 53 22 85 15 90 15 65 -3z
m-2357 -104 c-5 -63 -11 -89 -19 -85 -6 3 -18 8 -27 11 -10 3 -22 28 -29 59
-11 48 -11 57 4 80 9 14 21 23 25 20 5 -2 14 2 21 11 25 29 32 -1 25 -96z
m2005 103 c0 -14 -19 -38 -25 -32 -8 8 5 39 16 39 5 0 9 -3 9 -7z m-1639 -20
c3 -44 0 -154 -5 -171 -4 -12 -14 -22 -23 -22 -26 0 -94 -43 -89 -57 6 -14
-30 -43 -52 -43 -8 0 0 13 17 31 38 38 45 103 11 114 -30 9 -24 27 8 25 15 -1
32 -2 38 -1 16 1 24 25 14 41 -7 11 -11 11 -24 1 -13 -11 -17 -9 -25 12 -5 14
-15 28 -20 32 -25 15 -7 23 54 21 44 -1 66 3 70 11 5 14 25 18 26 6z m-502
-113 c-1 -55 -6 -100 -10 -100 -5 0 -9 7 -9 16 0 8 -4 13 -9 10 -10 -7 -33 19
-52 59 -19 40 -2 97 32 106 50 14 49 15 48 -91z m1746 73 c-5 -10 -9 -25 -9
-33 -1 -9 -9 -14 -21 -12 -28 5 -30 9 -15 27 7 8 9 15 4 15 -5 0 2 6 16 13 30
16 35 14 25 -10z m-178 -15 c-3 -8 -6 -5 -6 6 -1 11 2 17 5 13 3 -3 4 -12 1
-19z m-1227 2 c0 -5 -2 -10 -4 -10 -3 0 -8 5 -11 10 -3 6 -1 10 4 10 6 0 11
-4 11 -10z m266 -46 c-3 -8 4 -11 17 -10 20 2 22 -1 19 -29 -3 -26 -8 -31 -33
-33 l-29 -2 0 62 c1 58 2 61 16 43 8 -11 12 -25 10 -31z m1171 20 c-3 -3 -12
-4 -19 -1 -8 3 -5 6 6 6 11 1 17 -2 13 -5z m-1982 -88 c3 -27 8 -98 11 -157 5
-100 4 -109 -13 -110 -14 0 -12 -3 7 -11 l25 -10 -22 -10 c-24 -12 -37 -45
-19 -52 7 -3 6 -8 -4 -15 -12 -8 -11 -11 5 -17 48 -19 60 -66 17 -69 -18 -1
-21 2 -17 19 3 12 2 15 -1 9 -3 -7 -15 -13 -27 -13 -15 0 -18 -3 -10 -11 17
-17 5 -43 -14 -28 -7 7 -27 12 -43 11 -19 0 -30 4 -30 13 0 29 13 45 36 45 29
0 41 24 24 45 -16 20 -41 20 -34 0 8 -19 -24 -32 -45 -18 -9 6 -15 17 -13 24
2 10 0 10 -12 0 -10 -8 -16 -9 -21 -1 -11 18 2 38 36 55 30 16 32 16 55 -6 13
-12 27 -19 31 -16 3 4 1 7 -5 7 -7 0 -12 9 -12 20 0 11 -4 20 -10 20 -5 0 -1
9 10 20 38 38 22 78 -37 89 -3 0 1 9 9 19 9 10 13 31 12 52 -6 58 5 103 22 96
9 -3 25 1 37 9 12 8 16 15 9 15 -6 0 -12 7 -12 15 0 9 9 14 24 13 21 -2 25 -9
31 -52z m1706 31 c-10 -9 -11 -8 -5 6 3 10 9 15 12 12 3 -3 0 -11 -7 -18z
m-179 -11 c29 -13 65 -29 81 -35 26 -10 27 -11 10 -31 -10 -11 -19 -16 -21
-10 -3 9 -32 -12 -32 -24 0 -11 36 -6 49 7 21 19 4 -41 -22 -80 -27 -40 -44
-47 -63 -28 -9 8 -21 15 -28 15 -9 0 -13 18 -12 64 1 47 -3 69 -16 83 -15 16
-16 63 -2 63 2 0 27 -11 56 -24z m361 10 c4 -10 1 -13 -8 -9 -8 3 -12 9 -9 14
7 12 11 11 17 -5z m-123 -12 c0 -22 -50 -73 -67 -67 -7 3 -13 12 -13 20 0 9 6
13 14 10 15 -6 60 36 49 46 -3 4 -1 7 5 7 7 0 12 -7 12 -16z m-1212 -34 c3
-21 2 -22 -12 -11 -19 16 -21 44 -3 39 6 -3 14 -15 15 -28z m662 9 c0 -6 8 -8
19 -4 11 3 22 1 26 -5 5 -8 11 -8 21 1 11 9 14 8 15 -7 0 -11 3 -14 6 -6 2 6
16 12 29 12 21 0 24 -3 18 -25 -4 -15 -2 -25 5 -26 6 -1 16 -2 23 -3 20 -2 21
-26 1 -24 -35 3 -54 -2 -48 -12 4 -6 12 -10 18 -9 7 1 23 -3 37 -9 14 -6 19
-11 13 -11 -18 -1 -63 -43 -57 -53 3 -4 0 -9 -5 -9 -21 -3 -26 -4 -38 -12 -7
-5 -16 0 -23 12 -6 12 -16 18 -25 15 -8 -4 -15 -1 -15 5 0 17 -20 13 -27 -5
-6 -16 44 -77 58 -68 4 2 11 -1 14 -6 5 -7 11 -5 19 6 11 14 66 30 66 19 0
-15 -14 -34 -21 -29 -5 3 -9 -2 -9 -10 0 -10 -6 -13 -16 -9 -11 4 -15 1 -12
-13 2 -13 -3 -19 -15 -19 -10 0 -22 -7 -27 -15 -9 -15 -12 -11 -14 20 -1 10
-11 14 -28 13 -22 -1 -27 3 -32 32 -4 19 -16 41 -26 48 -11 8 -17 17 -13 21 4
4 1 11 -6 15 -29 19 -7 165 27 174 31 8 42 7 42 -4z m-785 -9 c3 -5 1 -10 -4
-10 -6 0 -11 5 -11 10 0 6 2 10 4 10 3 0 8 -4 11 -10z m-143 -7 c-6 -2 -10 -9
-7 -13 3 -5 12 -7 20 -4 8 4 12 11 8 17 -4 6 -1 7 6 3 9 -6 11 -30 8 -79 -6
-89 -21 -131 -43 -123 -9 3 -18 6 -21 6 -2 0 3 8 12 17 16 16 16 17 0 30 -32
23 -21 154 13 152 10 0 12 -3 4 -6z m-145 -18 c10 -8 26 -21 36 -28 16 -11 18
-20 10 -58 -11 -56 -25 -56 -35 0 -4 25 -12 47 -16 50 -11 7 -26 51 -18 51 3
0 14 -7 23 -15z m561 -7 c-21 -12 -38 -26 -38 -30 0 -5 26 -6 59 -2 35 4 66 2
77 -4 15 -8 24 -7 38 6 18 16 18 16 7 -5 -13 -25 -3 -31 17 -11 9 9 12 9 12 0
0 -7 -7 -15 -15 -18 -8 -4 -12 -11 -8 -17 3 -5 -2 -16 -11 -23 -10 -7 -15 -18
-11 -24 5 -9 10 -9 18 -1 14 14 27 14 27 1 0 -5 -11 -12 -24 -16 -28 -7 -37
-30 -22 -55 7 -13 1 -29 -27 -67 -20 -27 -37 -55 -37 -62 0 -7 -6 -6 -16 4
-17 18 -34 21 -34 7 0 -5 7 -16 15 -25 8 -8 15 -23 15 -33 0 -15 2 -16 11 -3
9 12 9 11 4 -5 -5 -11 -10 -32 -13 -47 -2 -16 -8 -28 -13 -28 -5 0 -9 -8 -9
-18 0 -18 -23 -69 -87 -200 -20 -41 -23 -56 -14 -62 10 -6 10 -12 2 -29 -8
-15 -9 -27 -1 -40 14 -27 13 -31 -10 -31 -11 0 -20 -4 -20 -10 0 -5 -4 -10
-10 -10 -6 0 -6 9 0 26 6 14 10 32 10 40 0 21 -18 17 -25 -7 -4 -12 -12 -18
-21 -15 -8 3 -14 1 -14 -3 0 -5 5 -11 11 -13 8 -3 5 -11 -7 -22 -10 -10 -19
-26 -20 -35 -1 -9 -5 -23 -8 -33 -5 -12 -1 -18 16 -24 13 -4 26 -7 30 -6 4 1
30 -3 58 -9 69 -15 105 -57 96 -113 -4 -22 -16 -60 -27 -85 -12 -27 -21 -74
-23 -116 -6 -135 -52 -187 -155 -179 -124 11 -119 7 -114 67 2 28 9 81 15 117
7 36 11 69 10 74 -2 5 -1 14 2 20 26 57 83 202 80 205 -7 7 -34 -21 -34 -36 0
-24 -72 -163 -81 -157 -5 3 -9 0 -9 -5 0 -6 4 -11 9 -11 5 0 0 -33 -11 -72
-22 -77 -33 -321 -19 -376 l8 -27 13 25 c8 14 15 32 16 40 5 25 27 60 35 54
10 -6 -18 -70 -48 -107 -16 -20 -23 -42 -23 -73 0 -28 4 -43 10 -39 16 10 12
-11 -5 -25 -8 -6 -19 -9 -25 -5 -15 9 -12 -16 4 -29 12 -10 27 -161 29 -294 0
-17 4 -32 8 -32 4 0 12 -24 19 -52 7 -29 19 -63 27 -76 7 -12 11 -27 8 -32 -3
-6 -2 -10 2 -10 8 0 47 -57 48 -70 2 -19 42 -90 52 -90 7 0 10 -7 7 -15 -4 -8
1 -17 10 -21 9 -3 16 -17 16 -30 l0 -24 49 27 c27 16 71 43 97 62 28 20 49 30
52 23 2 -6 10 -8 18 -5 7 3 12 9 9 13 -3 5 -1 11 5 15 5 3 10 0 10 -9 0 -8 6
-16 13 -19 6 -2 -13 -9 -44 -16 -36 -8 -67 -22 -88 -41 -18 -17 -38 -30 -45
-30 -19 0 -46 -34 -38 -47 10 -16 33 -11 66 15 16 12 32 22 35 22 4 0 24 17
46 38 21 20 35 31 30 23 -6 -10 -4 -13 6 -9 49 20 53 19 24 -6 -16 -14 -38
-25 -48 -26 -24 0 -105 -83 -123 -125 -7 -18 -18 -36 -23 -39 -14 -9 -26 15
-22 46 4 38 -26 44 -109 18 -38 -12 -80 -21 -92 -20 -36 3 -48 1 -48 -10 0 -5
7 -10 15 -10 18 0 77 -28 85 -40 3 -5 14 -10 25 -12 11 -1 26 -9 33 -15 7 -7
30 -13 50 -13 95 0 152 -38 152 -100 0 -31 -5 -43 -25 -56 -25 -16 -26 -16
-54 15 -15 17 -31 28 -34 24 -4 -3 -7 -1 -7 5 0 7 -7 12 -16 12 -8 0 -13 -3
-11 -7 3 -5 -70 -8 -161 -9 -92 -1 -208 -5 -258 -9 -100 -9 -157 3 -174 35 -6
11 -22 31 -35 46 -14 15 -26 36 -27 48 -1 12 -2 30 -3 41 -1 11 2 27 7 37 5
11 3 18 -7 22 -8 3 -15 0 -15 -7 0 -7 -5 -4 -11 7 -8 13 -8 25 2 43 10 18 10
29 2 42 -10 15 -8 20 12 29 15 7 26 8 30 2 4 -6 1 -10 -4 -10 -26 0 -8 -18 24
-24 26 -5 39 -14 46 -33 5 -15 17 -32 27 -39 9 -8 13 -14 9 -14 -5 0 -2 -7 7
-15 8 -8 21 -12 29 -9 10 3 18 -2 22 -15 3 -12 11 -21 16 -22 31 -4 48 0 82
16 44 22 48 46 12 79 -14 13 -25 30 -25 37 0 8 -7 23 -15 33 -8 10 -12 23 -9
27 3 5 0 9 -7 9 -7 0 -9 8 -4 23 4 12 6 32 6 43 0 15 7 24 25 28 13 4 22 11
19 16 -7 12 34 17 66 9 19 -5 29 -2 37 11 10 16 8 18 -11 16 -13 -1 -28 -5
-34 -9 -21 -13 -10 37 12 55 11 10 15 17 9 18 -6 0 -19 -9 -29 -20 -10 -11
-26 -19 -36 -18 -9 2 -27 -6 -39 -17 -16 -15 -23 -16 -29 -6 -6 9 -10 6 -15
-11 -6 -18 -10 -8 -20 45 -9 48 -18 72 -33 82 -26 18 -42 97 -24 119 15 18 8
81 -14 123 -10 21 -14 44 -10 65 7 34 46 88 65 88 5 0 10 3 10 8 0 4 14 16 30
27 26 17 30 25 27 57 -2 21 -10 44 -16 52 -13 15 -32 75 -34 109 -2 21 -17 23
-17 1 0 -11 -6 -14 -21 -9 -20 7 -21 4 -16 -26 3 -19 10 -52 16 -74 6 -22 11
-62 11 -90 0 -46 -1 -48 -16 -33 -12 11 -17 37 -19 85 -1 40 -9 82 -19 100
-25 49 -19 96 10 72 22 -18 64 17 60 49 -11 89 -21 130 -37 160 -23 39 -25
109 -4 132 18 20 45 122 45 171 0 20 7 42 15 49 8 7 15 17 15 22 0 5 16 42 35
82 31 62 34 76 25 100 -8 23 -13 26 -24 17 -24 -20 -29 6 -6 29 14 14 28 18
45 14 19 -5 26 -2 31 12 4 11 14 27 22 37 8 9 13 20 9 23 -3 3 -2 17 3 30 7
17 6 24 -3 24 -8 0 -9 3 -1 8 6 4 17 25 24 47 13 41 68 145 77 145 2 0 2 -16
-1 -35 -4 -20 -2 -35 4 -35 10 0 15 42 11 88 -1 12 11 41 27 65 16 23 37 56
45 74 9 17 26 34 37 38 20 6 50 52 50 76 0 8 -11 9 -32 5 -31 -6 -32 -5 -16
11 10 9 31 18 47 19 36 2 88 41 93 68 3 21 71 63 103 65 14 0 9 -6 -17 -21z
m1178 -25 c-7 -7 -26 7 -26 19 0 6 6 6 15 -2 9 -7 13 -15 11 -17z m-219 -5
c-3 -8 -6 -5 -6 6 -1 11 2 17 5 13 3 -3 4 -12 1 -19z m137 -22 c-3 -14 -12
-26 -20 -26 -18 0 -18 5 2 36 20 30 27 26 18 -10z m-163 -57 c-9 -22 -10 -22
-10 -3 -1 11 2 24 6 27 12 12 14 0 4 -24z m119 17 c0 -3 -4 -8 -10 -11 -5 -3
-10 -1 -10 4 0 6 5 11 10 11 6 0 10 -2 10 -4z m-645 -15 c-3 -5 -1 -12 5 -16
5 -3 9 -18 9 -33 -1 -17 -3 -21 -6 -9 -5 20 -23 23 -23 5 -1 -8 -7 -5 -15 6
-14 19 -11 41 5 31 4 -3 10 2 14 10 3 8 8 15 11 15 4 0 4 -4 0 -9z m-965 -66
c10 -12 10 -15 -4 -15 -9 0 -16 7 -16 15 0 8 2 15 4 15 2 0 9 -7 16 -15z m135
-47 c3 1 5 0 5 -3 0 -34 -1 -39 -8 -29 -11 16 -42 25 -42 12 0 -6 -3 -8 -7 -5
-3 4 0 19 7 33 13 24 15 24 28 7 7 -10 15 -17 17 -15z m819 15 c9 4 16 4 16 1
0 -3 -13 -10 -30 -15 -16 -6 -30 -17 -30 -25 0 -8 -7 -14 -15 -14 -8 0 -15 4
-15 10 0 16 45 56 51 46 4 -5 14 -6 23 -3z m-654 2 c0 -10 -45 -75 -52 -75
-12 0 -10 8 15 45 19 31 37 45 37 30z m-284 -62 c-11 -11 -19 6 -11 24 8 17 8
17 12 0 3 -10 2 -21 -1 -24z m-149 -55 c-3 -8 -6 -5 -6 6 -1 11 2 17 5 13 3
-3 4 -12 1 -19z m227 -3 c3 -9 0 -15 -9 -15 -9 0 -12 6 -9 15 4 8 7 15 9 15 2
0 5 -7 9 -15z m1646 -32 c0 -24 -17 -21 -33 7 l-17 28 25 -11 c14 -7 25 -17
25 -24z m-944 12 c-11 -8 -25 -15 -30 -15 -6 0 -2 7 8 15 11 8 25 15 30 15 6
0 2 -7 -8 -15z m436 -20 c-2 -19 -8 -32 -13 -29 -5 3 -9 0 -9 -5 0 -6 -5 -11
-12 -11 -6 0 -4 7 5 18 10 10 17 25 17 34 0 12 8 28 15 28 0 0 -1 -16 -3 -35z
m458 8 c0 -13 -3 -13 -15 -3 -8 7 -15 16 -15 21 0 5 7 6 15 3 8 -4 15 -13 15
-21z m-1490 -3 c-6 -11 -13 -20 -16 -20 -2 0 0 9 6 20 6 11 13 20 16 20 2 0 0
-9 -6 -20z m947 -72 c-3 -8 -6 -5 -6 6 -1 11 2 17 5 13 3 -3 4 -12 1 -19z
m543 2 c0 -5 -2 -10 -4 -10 -3 0 -8 5 -11 10 -3 6 -1 10 4 10 6 0 11 -4 11
-10z m170 1 c0 -5 -7 -11 -15 -15 -9 -3 -15 0 -15 9 0 8 7 15 15 15 8 0 15 -4
15 -9z m-1717 -56 c-15 -24 -29 -42 -32 -40 -4 5 46 85 54 85 2 0 -8 -20 -22
-45z m1614 -6 c-2 -24 -4 -26 -18 -13 -21 19 -20 43 2 41 13 -1 17 -9 16 -28z
m53 6 c0 -8 6 -20 14 -27 11 -12 11 -17 -5 -36 -18 -23 -34 -16 -23 11 3 8 -2
17 -10 20 -16 6 -22 38 -10 50 9 9 34 -4 34 -18z m-930 -35 c0 -5 -5 -10 -11
-10 -5 0 -7 5 -4 10 3 6 8 10 11 10 2 0 4 -4 4 -10z m-800 -85 c-12 -30 -26
-55 -31 -55 -9 0 12 67 32 98 23 37 22 15 -1 -43z m528 -107 c7 -7 12 -20 12
-31 0 -10 5 -15 10 -12 6 3 10 15 10 26 0 10 6 19 13 19 11 0 12 -11 6 -47 -4
-27 -8 -56 -8 -65 -1 -31 -30 -20 -40 15 l-9 32 -7 -32 c-4 -18 -14 -33 -21
-33 -17 0 -17 -2 -3 77 11 65 16 72 37 51z m1442 -3 c-7 -8 -17 -15 -22 -15
-6 0 -5 7 2 15 7 8 17 15 22 15 6 0 5 -7 -2 -15z m-1508 -64 c-3 -47 -7 -61
-19 -61 -13 0 -14 9 -8 58 7 61 12 75 23 68 4 -2 5 -31 4 -65z m236 47 c2 -11
-3 -18 -12 -18 -9 0 -16 5 -16 10 0 6 -4 10 -10 10 -11 0 -32 -69 -24 -82 9
-15 25 3 22 25 -2 14 2 22 12 22 19 0 25 -37 10 -65 -9 -17 -17 -20 -38 -15
-15 3 -31 10 -35 14 -7 7 2 60 18 109 7 20 69 11 73 -10z m181 -32 c9 -10 7
-24 -8 -59 -23 -54 -32 -60 -71 -52 -27 6 -28 8 -19 33 30 79 71 111 98 78z
m-1286 -13 c-7 -2 -19 -2 -25 0 -7 3 -2 5 12 5 14 0 19 -2 13 -5z m1367 -10
c0 -5 -11 -28 -25 -52 -29 -50 -29 -51 -12 -51 6 0 24 20 39 45 38 63 56 56
20 -7 -26 -48 -33 -53 -63 -53 -45 0 -47 19 -8 78 28 42 49 60 49 40z m124
-43 c30 -11 35 -30 8 -30 -10 0 -32 -20 -50 -45 -18 -26 -37 -43 -42 -40 -5 3
6 27 25 54 26 36 32 50 23 59 -15 15 0 16 36 2z m-1530 -56 c24 -9 19 -27 -15
-60 l-30 -29 -19 24 c-21 29 -16 49 14 61 27 11 31 11 50 4z m303 -67 c-12
-37 -25 -67 -29 -67 -4 0 3 30 17 66 14 37 25 69 25 72 0 3 2 3 4 1 3 -3 -5
-35 -17 -72z m-408 44 c20 -13 6 -39 -25 -52 -20 -7 -30 -6 -38 2 -8 8 -8 13
2 16 6 3 12 13 12 24 0 20 25 25 49 10z m1811 -55 c0 -20 -67 -76 -90 -76 -13
0 -32 8 -43 17 -18 17 -17 19 35 65 l53 47 23 -21 c12 -12 22 -26 22 -32z
m-551 10 c59 -13 91 -42 91 -82 0 -14 -16 -64 -36 -112 -20 -48 -40 -116 -44
-152 -14 -105 -46 -195 -81 -224 -36 -31 -76 -33 -157 -10 -67 19 -68 20 -55
36 17 22 85 231 87 268 1 19 6 42 11 50 18 28 73 223 67 238 -4 13 0 14 29 7
19 -4 58 -13 88 -19z m599 -56 c-4 -12 -97 -80 -108 -80 -22 0 -7 21 42 59 46
35 75 44 66 21z m-1878 -36 c0 -8 -4 -12 -10 -9 -5 3 -10 10 -10 16 0 5 5 9
10 9 6 0 10 -7 10 -16z m397 -6 c-3 -8 -6 -5 -6 6 -1 11 2 17 5 13 3 -3 4 -12
1 -19z m1543 -32 c11 -22 12 -30 3 -33 -17 -6 -28 0 -28 16 0 8 -4 16 -10 18
-13 4 -75 -34 -75 -47 0 -16 30 -12 36 5 8 19 30 19 38 0 4 -11 -5 -21 -29
-32 -33 -16 -36 -15 -55 2 -29 26 -22 44 30 76 54 33 70 33 90 -5z m-428 9
c81 -17 118 -46 118 -93 0 -32 -25 -107 -45 -136 -8 -11 -15 -36 -15 -56 0
-19 -7 -57 -15 -84 -33 -110 -75 -135 -197 -116 -77 12 -86 17 -69 36 5 5 19
61 31 124 11 63 25 124 30 135 22 47 60 164 60 184 0 25 7 25 102 6z m2318
-36 c0 -6 -4 -7 -10 -4 -5 3 -10 11 -10 16 0 6 5 7 10 4 6 -3 10 -11 10 -16z
m-164 -48 c14 10 13 6 -4 -18 l-22 -31 34 -35 c25 -26 40 -34 55 -30 26 7 26
-4 3 -37 -18 -26 -25 -30 -78 -34 -29 -2 -32 0 -23 16 6 12 6 18 -1 18 -5 0
-10 7 -10 16 0 14 3 14 15 4 12 -10 15 -10 15 4 0 9 -7 16 -15 16 -18 0 -18 5
-5 31 7 13 7 19 0 19 -11 0 -14 53 -3 63 4 4 10 2 14 -5 6 -9 12 -8 25 3z m89
-1 c3 -5 -1 -10 -9 -10 -9 0 -16 5 -16 10 0 6 4 10 9 10 6 0 13 -4 16 -10z
m-1808 -46 c8 -21 -19 -38 -30 -18 -9 16 -1 34 14 34 5 0 12 -7 16 -16z m1807
7 c8 -12 -21 -47 -31 -37 -4 5 -3 11 4 13 7 2 9 11 6 19 -5 15 12 20 21 5z
m17 -24 c-10 -9 -11 -8 -5 6 3 10 9 15 12 12 3 -3 0 -11 -7 -18z m53 -42 c4
-18 3 -25 -2 -17 -5 7 -15 12 -23 10 -8 -2 -14 4 -14 12 0 8 5 14 11 13 7 -1
10 7 7 20 -3 17 -2 18 5 7 5 -8 12 -28 16 -45z m-1277 13 c-3 -7 -5 -2 -5 12
0 14 2 19 5 13 2 -7 2 -19 0 -25z m-833 -44 c23 -9 20 -24 -6 -24 -20 0 -21
-1 -3 -20 25 -27 6 -73 -28 -68 -22 3 -39 48 -18 48 6 0 11 -4 11 -10 0 -5 5
-10 10 -10 6 0 10 7 10 15 0 8 -4 15 -10 15 -11 0 -14 43 -3 53 8 9 17 9 37 1z
m56 -29 c0 -12 7 -14 28 -9 l27 7 -24 -26 c-18 -20 -22 -33 -18 -57 7 -34 -8
-42 -17 -8 -4 18 -8 20 -18 10 -22 -22 -30 -12 -9 14 14 18 18 34 14 55 -3 18
-1 29 6 29 6 0 11 -7 11 -15z m75 -47 c-11 -49 -23 -78 -33 -78 -5 0 -2 25 6
55 16 59 38 77 27 23z m63 -1 c8 -9 8 -25 -1 -54 -15 -51 -20 -57 -46 -48 -24
7 -26 23 -10 78 10 39 36 50 57 24z m1775 -28 c-6 -6 -9 -17 -7 -24 3 -7 1
-16 -5 -20 -17 -10 -13 -38 3 -32 16 6 42 -18 28 -27 -10 -6 -51 4 -53 13 -8
45 -6 68 9 82 9 10 21 18 27 18 5 1 4 -4 -2 -10z m87 -3 c0 -3 -4 -8 -10 -11
-5 -3 -10 -1 -10 4 0 6 5 11 10 11 6 0 10 -2 10 -4z m-2069 -32 c44 -13 163
-60 178 -70 1 -2 0 -7 -4 -13 -4 -8 -12 -8 -27 0 -11 6 -64 26 -117 44 -52 19
-97 39 -99 44 -5 15 5 14 69 -5z m1609 2 c0 -8 -4 -17 -10 -21 -5 -3 -6 -13
-3 -21 7 -19 -13 -34 -47 -34 -42 0 -53 13 -39 43 14 32 34 40 60 27 15 -8 19
-7 19 5 0 8 5 15 10 15 6 0 10 -6 10 -14z m145 -6 c10 -11 13 -20 7 -20 -6 0
-16 9 -22 20 -6 11 -9 20 -7 20 2 0 12 -9 22 -20z m390 0 c-5 -15 -2 -20 12
-22 10 0 23 -2 30 -2 22 -2 21 -11 -3 -23 -19 -9 -27 -8 -39 3 -7 8 -19 13
-26 12 -6 -2 -14 3 -16 10 -3 7 1 10 10 6 9 -3 16 3 20 15 3 12 8 21 12 21 3
0 3 -9 0 -20z m-771 -6 c9 -3 16 -13 16 -21 0 -8 5 -11 12 -7 7 5 8 3 4 -5 -6
-9 -12 -9 -25 3 -10 9 -23 16 -29 16 -6 0 -14 5 -17 10 -7 11 15 13 39 4z
m-104 -78 c-12 -58 -22 -66 -87 -66 -30 0 -195 54 -244 80 -20 11 -20 12 -2
24 27 19 50 17 131 -10 94 -31 112 -30 164 9 24 19 44 30 46 26 2 -5 -2 -33
-8 -63z m54 65 c3 -5 0 -11 -7 -14 -8 -3 -14 1 -14 9 0 16 13 19 21 5z m740
-12 c-3 -6 3 -13 15 -16 12 -3 21 -13 21 -24 0 -21 16 -26 23 -6 8 19 27 -12
27 -45 0 -28 -18 -47 -29 -31 -11 16 -43 24 -56 13 -16 -14 -48 -1 -41 16 3 8
1 14 -4 14 -18 0 -10 20 8 21 9 0 12 3 5 5 -9 4 -8 14 4 39 9 19 20 32 25 29
4 -3 6 -10 2 -15z m-227 -11 c-3 -8 -6 -5 -6 6 -1 11 2 17 5 13 3 -3 4 -12 1
-19z m-501 -37 c-3 -5 -15 -11 -26 -14 -17 -4 -19 -3 -9 9 12 15 44 20 35 5z
m367 -11 c3 -11 1 -20 -4 -20 -5 0 -9 9 -9 20 0 11 2 20 4 20 2 0 6 -9 9 -20z
m-2535 1 c15 -9 13 -52 -3 -51 -5 1 -9 8 -7 16 2 8 -4 14 -13 14 -12 0 -15 -9
-14 -42 3 -47 -23 -108 -45 -108 -32 0 -48 58 -18 68 7 2 10 -2 6 -12 -9 -23
13 -20 26 3 5 11 10 35 10 55 0 61 20 81 58 57z m94 -27 c9 -9 -7 -57 -20 -62
-7 -2 -10 2 -6 12 12 32 -5 15 -35 -34 -31 -50 -43 -92 -16 -56 22 29 38 10
20 -25 -17 -32 -22 -34 -47 -15 -27 20 -22 39 30 116 43 65 60 79 74 64z
m2072 -9 c-4 -8 -10 -15 -15 -15 -4 0 -6 7 -3 15 4 8 10 15 15 15 4 0 6 -7 3
-15z m190 -6 c16 0 35 -7 42 -17 15 -20 18 -52 5 -52 -5 0 -17 -8 -26 -17 -18
-17 -65 -25 -65 -10 0 4 -4 5 -10 2 -5 -3 -10 1 -10 9 0 9 -6 16 -14 16 -25 0
-37 25 -26 55 9 24 14 26 43 20 17 -3 45 -6 61 -6z m218 -11 c-7 -7 -12 -8
-12 -2 0 14 12 26 19 19 2 -3 -1 -11 -7 -17z m99 0 c11 -21 11 -22 -4 -9 -10
7 -17 17 -17 22 0 15 9 10 21 -13z m-128 -3 c-3 -9 -8 -14 -10 -11 -3 3 -2 9
2 15 9 16 15 13 8 -4z m222 5 c3 -5 1 -10 -4 -10 -6 0 -11 5 -11 10 0 6 2 10
4 10 3 0 8 -4 11 -10z m-2595 -3 c0 -7 -59 -177 -65 -186 -3 -6 -12 -8 -19 -5
-11 4 -6 24 19 89 19 46 36 89 40 95 6 9 25 15 25 7z m126 -29 c3 -5 0 -30 -7
-55 -11 -39 -18 -48 -51 -61 -25 -10 -40 -23 -44 -39 -4 -14 -14 -23 -25 -23
-18 0 -18 1 0 48 10 26 26 70 35 97 16 50 17 51 51 47 19 -2 38 -9 41 -14z
m2624 12 c12 -8 11 -10 -7 -10 -13 0 -23 5 -23 10 0 13 11 13 30 0z m110 -11
c0 -5 -4 -9 -10 -9 -5 0 -10 6 -10 13 0 8 -4 7 -10 -3 -5 -8 -10 -10 -10 -4 0
6 3 13 6 17 8 8 34 -3 34 -14z m-932 -7 c2 -6 -6 -10 -17 -9 -22 1 -26 8 -14
21 9 9 26 3 31 -12z m-1718 -5 c0 -2 -11 -37 -25 -77 -29 -86 -30 -90 -10 -90
18 0 20 -29 3 -35 -7 -3 -25 -2 -39 3 l-25 7 34 98 c21 58 40 97 48 97 8 0 14
-1 14 -3z m2182 -25 c-7 -2 -12 -11 -12 -20 0 -12 -3 -13 -11 -5 -13 13 10 45
26 35 5 -3 4 -7 -3 -10z m-2101 -101 c-15 -72 -29 -101 -44 -95 -11 4 -9 19
10 77 12 40 26 86 30 102 l7 30 4 -33 c2 -18 -1 -55 -7 -81z m2159 105 c0 -2
-7 -6 -15 -10 -8 -3 -15 -1 -15 4 0 6 7 10 15 10 8 0 15 -2 15 -4z m-2086 -12
c9 -3 16 -18 17 -33 0 -14 4 -35 8 -46 6 -15 9 -11 14 23 5 27 12 42 22 42 18
0 18 0 0 -75 -8 -33 -14 -75 -15 -92 0 -23 -5 -33 -15 -33 -17 0 -20 6 -30 65
-6 33 -9 37 -15 20 -5 -11 -9 -32 -9 -47 -1 -17 -7 -28 -15 -28 -16 0 -15 5 6
143 5 37 11 67 13 67 2 0 10 -3 19 -6z m1224 -61 c12 -22 20 -47 17 -55 -7
-18 -98 -40 -158 -38 -54 1 -93 14 -119 37 -17 15 -17 17 -1 28 10 7 59 25
108 40 50 14 95 28 100 30 20 7 30 -2 53 -42z m-1033 17 c35 -13 27 -36 -12
-32 -33 4 -55 -24 -28 -34 22 -9 18 -34 -5 -34 -31 0 -27 -46 5 -54 39 -10 29
-26 -16 -26 l-42 0 6 53 c3 30 11 72 18 95 13 45 26 50 74 32z m1839 -35 c3
-8 1 -15 -4 -15 -6 0 -10 7 -10 15 0 8 2 15 4 15 2 0 6 -7 10 -15z m106 -44
c0 -6 -7 -8 -15 -5 -8 4 -15 15 -15 26 0 17 2 18 15 4 8 -8 15 -19 15 -25z
m-2771 20 c11 -7 12 -15 4 -38 -6 -15 -16 -47 -22 -71 -10 -37 -15 -42 -27
-31 -8 7 -11 15 -6 18 28 18 43 96 20 103 -6 2 -8 10 -4 16 9 14 16 15 35 3z
m2531 -11 c0 -5 -5 -10 -11 -10 -5 0 -7 5 -4 10 3 6 8 10 11 10 2 0 4 -4 4
-10z m-2466 -20 c30 -11 34 -30 7 -30 -20 0 -51 -53 -51 -89 0 -12 -4 -21 -9
-21 -11 0 -3 66 11 93 5 10 6 27 3 37 -7 22 2 25 39 10z m2636 0 c0 -5 -2 -10
-4 -10 -3 0 -8 5 -11 10 -3 6 -1 10 4 10 6 0 11 -4 11 -10z m-180 -4 c0 -3 -4
-8 -10 -11 -5 -3 -10 -1 -10 4 0 6 5 11 10 11 6 0 10 -2 10 -4z m-2559 -33
c-8 -15 -10 -15 -11 -2 0 17 10 32 18 25 2 -3 -1 -13 -7 -23z m158 -20 c-6
-15 -15 -33 -20 -40 -6 -6 -13 -23 -17 -37 -8 -30 -28 -31 -23 -1 4 27 51 105
62 105 5 0 4 -12 -2 -27z m1419 7 c2 -6 13 -10 25 -10 12 0 28 -4 35 -9 18
-11 -21 -52 -66 -70 -25 -10 -34 -23 -45 -60 -14 -49 -13 -48 -84 -39 -30 3
-29 25 1 79 14 24 22 47 20 51 -3 5 6 25 21 44 24 32 31 35 59 30 17 -4 33
-11 34 -16z m-1370 -29 c-4 -44 5 -44 28 1 11 21 19 27 26 20 13 -13 -69 -131
-91 -131 -14 -1 -14 1 10 97 16 61 33 69 27 13z m2576 15 c-10 -8 -21 -12 -24
-10 -5 6 21 24 34 24 6 0 1 -6 -10 -14z m-2464 -13 c0 -25 -34 -143 -41 -143
-5 0 -9 7 -9 15 0 18 -21 20 -38 3 -25 -25 -24 4 2 39 16 21 36 50 45 65 15
26 41 38 41 21z m2546 -16 c8 3 14 -1 14 -10 0 -19 -44 -11 -62 11 -11 13 -10
15 5 9 10 -4 17 -2 18 6 1 7 3 4 6 -5 2 -10 10 -15 19 -11z m-2462 7 c20 -8
21 -34 2 -34 -12 0 -56 -85 -56 -109 0 -6 -7 -11 -15 -11 -19 0 -19 -1 10 67
23 51 24 59 11 69 -27 19 9 33 48 18z m2178 -35 c-5 -48 -10 -52 -35 -28 -14
12 -18 22 -11 27 6 4 14 15 17 25 12 31 32 14 29 -24z m-82 21 c0 -6 -8 -14
-17 -17 -10 -4 -21 -11 -25 -17 -4 -6 -11 -7 -15 -2 -4 4 3 16 16 27 26 21 41
24 41 9z m261 -29 c-7 -12 -17 -18 -26 -15 -20 8 -19 34 0 34 8 0 15 5 15 12
0 9 3 9 11 1 8 -8 8 -17 0 -32z m-2316 -43 c-13 -40 -28 -74 -34 -76 -15 -5
-14 10 7 65 11 26 22 56 25 66 4 9 11 17 16 17 5 0 -1 -32 -14 -72z m112 51
c8 -8 6 -29 -8 -77 -10 -37 -19 -68 -19 -69 0 -11 -62 0 -66 11 -5 13 8 73 26
122 10 26 47 33 67 13z m2243 -1 c0 -7 -4 -19 -9 -27 -11 -17 -23 1 -15 23 7
19 24 21 24 4z m60 -7 c0 -12 -21 -19 -38 -13 -11 4 -11 6 0 13 17 11 38 11
38 0z m249 6 c-2 -1 -13 -9 -24 -17 -19 -14 -19 -14 -6 3 7 9 18 17 24 17 6 0
8 -1 6 -3z m-2474 -39 l7 -33 11 28 c11 27 27 37 27 16 0 -6 -8 -40 -17 -75
-17 -63 -43 -88 -43 -41 0 12 -5 29 -10 37 -8 12 -10 12 -10 -5 0 -25 -17 -52
-25 -43 -11 10 28 148 41 148 6 0 15 -15 19 -32z m1662 20 c-2 -7 2 -21 10
-30 14 -15 13 -18 -11 -24 -15 -3 -32 -1 -41 6 -8 6 -23 9 -34 5 -10 -3 -22
-1 -25 4 -7 11 33 36 52 33 6 -2 20 2 30 7 22 14 25 13 19 -1z m73 -8 c-23
-14 -8 -20 33 -11 20 5 35 5 32 1 -10 -16 -65 -22 -81 -9 -12 10 -12 14 -2 20
7 5 18 9 23 9 6 0 3 -4 -5 -10z m-39 -17 c13 -16 12 -17 -3 -4 -17 13 -22 21
-14 21 2 0 10 -8 17 -17z m-1591 -23 c0 -5 -5 -10 -11 -10 -5 0 -8 -4 -5 -9 4
-5 0 -12 -6 -14 -10 -4 -9 -8 2 -16 12 -9 11 -11 -7 -11 -27 0 -26 -2 -12 39
10 28 39 44 39 21z m60 -10 c0 -15 -18 -21 -24 -8 -3 7 -3 3 0 -9 4 -17 1 -23
-10 -23 -18 0 -20 13 -6 40 10 18 40 18 40 0z m2190 -5 c10 -13 9 -15 -9 -15
-12 0 -21 6 -21 15 0 8 4 15 9 15 5 0 14 -7 21 -15z m-40 -25 c14 -11 21 -20
17 -20 -11 0 -67 29 -67 35 0 11 27 3 50 -15z m0 -62 c0 -5 -9 -3 -20 4 -11 7
-20 16 -20 20 0 5 9 3 20 -4 11 -7 20 -16 20 -20z m-728 -30 c-7 -7 -12 -8
-12 -2 0 14 12 26 19 19 2 -3 -1 -11 -7 -17z m775 16 c-3 -3 -12 -4 -19 -1 -8
3 -5 6 6 6 11 1 17 -2 13 -5z m-1364 -144 c19 -12 39 -20 43 -19 5 1 23 -4 41
-12 30 -14 31 -16 13 -27 -15 -9 -33 -5 -97 20 -92 37 -87 34 -78 47 10 17 40
13 78 -9z m-694 -63 c9 -11 4 -14 -24 -13 -39 1 -47 12 -12 19 12 2 23 5 23 6
1 0 7 -5 13 -12z m-129 -27 c-19 -13 -30 -13 -30 0 0 6 10 10 23 10 18 0 19
-2 7 -10z m-165 -29 c-13 -11 -81 -34 -71 -24 4 5 22 13 39 20 40 15 43 15 32
4z m-329 -96 c-11 -8 -25 -15 -32 -15 -7 0 -14 -5 -16 -12 -5 -13 -58 -3 -58
12 0 9 34 15 73 12 9 -1 17 3 17 8 0 6 8 10 18 10 15 -1 15 -2 -2 -15z m642 2
c7 -5 12 -3 12 4 0 9 3 9 14 0 7 -6 22 -8 31 -4 14 5 16 3 10 -7 -6 -10 -3
-12 13 -8 15 4 19 2 15 -8 -3 -10 0 -12 10 -8 8 3 18 1 21 -5 4 -6 13 -8 21
-4 8 3 15 1 15 -3 0 -5 16 -10 36 -11 19 -1 41 -6 48 -12 7 -6 16 -8 19 -4 4
3 13 0 22 -7 9 -7 18 -10 21 -7 3 3 21 -3 40 -14 42 -23 51 -24 34 -4 -7 8 -8
15 -4 15 5 0 15 -9 22 -21 8 -12 19 -18 28 -15 8 3 17 -1 21 -9 4 -11 9 -13
18 -5 9 8 14 6 19 -7 6 -15 8 -15 17 -3 8 13 11 13 23 -2 7 -10 16 -15 20 -11
4 4 11 1 17 -7 7 -13 10 -13 18 -1 10 15 35 5 26 -10 -4 -5 0 -9 9 -9 8 0 16
3 19 8 2 4 2 0 -1 -8 -2 -8 -5 -21 -5 -27 0 -17 -19 -17 -35 -1 -7 7 -5 -2 4
-20 19 -39 14 -54 -6 -17 -7 14 -17 25 -22 25 -5 0 -6 5 -3 10 3 6 1 10 -5 10
-7 0 -9 -8 -5 -20 3 -11 2 -20 -3 -20 -5 0 -12 9 -15 20 -3 12 -14 20 -26 20
-12 0 -21 6 -21 15 0 13 -3 13 -20 3 -11 -7 -20 -17 -20 -21 0 -5 -10 -17 -22
-26 -20 -17 -21 -19 -5 -42 36 -51 1 -60 -47 -13 -19 20 -40 27 -99 33 -41 5
-80 12 -86 16 -7 4 -18 1 -26 -5 -12 -10 -15 -10 -15 2 0 8 5 19 12 26 19 19
-12 15 -55 -7 -39 -20 -60 -12 -29 11 9 7 26 26 35 41 15 24 23 28 45 22 15
-3 36 -17 47 -30 22 -26 38 -32 104 -40 42 -5 43 -5 37 19 -3 14 -2 28 4 31 5
3 10 10 10 15 0 13 -33 21 -44 10 -15 -15 -29 -12 -22 5 6 17 -9 21 -19 5 -10
-16 -28 -12 -21 5 3 8 1 15 -4 15 -6 0 -10 -4 -10 -10 0 -5 -4 -10 -10 -10 -5
0 -10 5 -10 11 0 6 -7 17 -15 26 -14 13 -18 13 -40 -1 -14 -9 -25 -12 -25 -7
0 5 6 11 13 14 6 2 8 8 4 13 -5 5 -17 -1 -28 -15 -11 -13 -22 -21 -26 -17 -4
3 -1 12 5 18 7 7 12 17 12 22 0 6 -5 5 -12 -2 -9 -9 -15 -9 -27 1 -14 11 -14
10 -2 -6 8 -9 12 -18 10 -20 -2 -1 -17 -13 -32 -27 -23 -20 -27 -21 -21 -6 6
16 4 17 -14 7 -26 -14 -35 -14 -27 -1 3 6 -1 10 -9 10 -10 0 -13 6 -10 15 5
11 2 13 -10 9 -18 -7 -22 6 -6 22 10 10 2 54 -11 54 -4 0 -11 -5 -14 -11 -5
-6 -12 -4 -20 8 -11 15 -11 19 0 23 21 8 68 6 83 -3z m2182 3 c0 -5 -5 -10
-11 -10 -5 0 -7 5 -4 10 3 6 8 10 11 10 2 0 4 -4 4 -10z m-2220 -54 c0 -3 -4
-8 -10 -11 -5 -3 -10 -1 -10 4 0 6 5 11 10 11 6 0 10 -2 10 -4z m-220 -10 c0
-3 -4 -8 -10 -11 -5 -3 -10 -1 -10 4 0 6 5 11 10 11 6 0 10 -2 10 -4z m-19
-19 c20 -15 45 -63 54 -105 4 -19 25 -68 46 -110 46 -90 47 -113 3 -74 -18 15
-48 36 -68 47 -36 20 -47 35 -23 35 7 0 21 14 30 30 10 17 17 30 15 30 -2 0
-18 -4 -36 -10 -26 -7 -33 -6 -29 3 18 49 18 53 -10 52 -48 0 -78 97 -34 108
27 8 35 7 52 -6z m479 -37 c0 -5 -4 -10 -10 -10 -5 0 -10 5 -10 10 0 6 5 10
10 10 6 0 10 -4 10 -10z m1240 -55 c0 -9 -11 -21 -25 -27 -21 -9 -32 -8 -63 7
l-37 19 35 7 c63 12 90 10 90 -6z m-140 1 c0 -2 -8 -10 -17 -17 -16 -13 -17
-12 -4 4 13 16 21 21 21 13z m-252 -67 c7 -11 8 -19 2 -19 -5 0 -14 9 -20 20
-6 11 -17 20 -24 20 -8 0 -17 7 -20 15 -5 14 -2 14 22 -1 16 -9 34 -25 40 -35z
m-388 20 c0 -11 -4 -17 -10 -14 -5 3 -10 13 -10 21 0 8 5 14 10 14 6 0 10 -9
10 -21z m-1161 -15 c19 -19 30 -24 50 -19 14 4 30 7 36 8 5 1 13 5 16 10 5 6
69 29 69 24 0 -1 11 -29 24 -62 25 -61 22 -85 -11 -85 -12 0 -14 7 -9 31 5 26
3 29 -12 25 -12 -4 -27 3 -42 19 -18 19 -26 22 -37 14 -7 -6 -22 -9 -33 -6
-11 3 -20 1 -20 -4 0 -5 -5 -9 -11 -9 -5 0 -8 4 -5 9 3 5 -6 12 -21 16 -17 4
-29 2 -31 -4 -6 -17 -19 -13 -25 8 -5 22 9 51 26 51 7 0 23 -12 36 -26z m1761
16 c0 -5 -5 -10 -11 -10 -5 0 -7 5 -4 10 3 6 8 10 11 10 2 0 4 -4 4 -10z m121
-8 c-7 -2 -18 1 -23 6 -8 8 -4 9 13 5 13 -4 18 -8 10 -11z m-861 -2 c0 -5 -4
-10 -10 -10 -5 0 -10 5 -10 10 0 6 5 10 10 10 6 0 10 -4 10 -10z m400 -6 c0
-3 -6 -12 -14 -19 -17 -18 -29 -8 -13 11 12 14 27 18 27 8z m-385 -24 c3 -5 1
-10 -4 -10 -6 0 -11 5 -11 10 0 6 2 10 4 10 3 0 8 -4 11 -10z m395 -10 c0 -5
-2 -10 -4 -10 -3 0 -8 5 -11 10 -3 6 -1 10 4 10 6 0 11 -4 11 -10z m174 -25
c3 -8 3 -29 0 -45 -5 -23 -17 -34 -55 -52 -26 -13 -48 -28 -49 -34 0 -6 -14
-11 -31 -11 l-31 0 26 14 c14 7 26 20 26 28 0 8 4 15 9 15 17 0 61 47 61 65 0
11 5 15 14 12 10 -4 13 -1 9 9 -3 7 -1 14 5 14 5 0 12 -7 16 -15z m-1644 1 c0
-3 -4 -8 -10 -11 -5 -3 -10 -1 -10 4 0 6 5 11 10 11 6 0 10 -2 10 -4z m2579
-35 c10 -6 -1 -8 -30 -4 -24 3 -46 7 -48 9 -10 9 65 3 78 -5z m-3482 -53 c-3
-8 -6 -5 -6 6 -1 11 2 17 5 13 3 -3 4 -12 1 -19z m2848 13 c-3 -6 10 -7 32 -4
l38 6 -35 -33 c-41 -38 -75 -50 -147 -50 -42 0 -54 4 -63 20 -11 21 -6 24 33
21 19 -2 22 9 7 27 -7 9 -7 9 2 2 17 -14 48 -12 78 5 28 16 64 20 55 6z m-575
-21 c0 -5 -7 -10 -15 -10 -8 0 -15 5 -15 10 0 6 7 10 15 10 8 0 15 -4 15 -10z
m730 0 c0 -12 -8 -12 -35 0 -18 8 -17 9 8 9 15 1 27 -3 27 -9z m-1520 -4 c0
-3 -4 -8 -10 -11 -5 -3 -10 -1 -10 4 0 6 5 11 10 11 6 0 10 -2 10 -4z m1420
-26 c0 -5 -8 -10 -17 -10 -15 0 -16 2 -3 10 19 12 20 12 20 0z m-660 -14 c0
-11 -19 -15 -25 -6 -3 5 1 10 9 10 9 0 16 -2 16 -4z m-2158 -36 c20 0 42 -26
30 -34 -18 -11 -71 6 -77 25 -9 28 5 46 20 26 7 -10 19 -17 27 -17z m2241 16
c19 -15 23 -41 7 -51 -6 -3 -10 5 -10 19 0 20 -7 27 -32 35 -29 8 -30 9 -8 10
14 0 33 -6 43 -13z m553 -17 c4 -8 0 -9 -15 -4 -16 5 -20 3 -15 -9 3 -9 10
-16 15 -16 14 0 31 -52 21 -62 -5 -5 -21 -2 -38 7 -29 15 -26 19 9 15 17 -1
17 -1 0 19 -21 25 -33 27 -33 6 0 -22 -21 -18 -27 5 -3 11 -9 20 -14 20 -5 0
-6 -7 -3 -15 5 -12 -2 -15 -27 -14 -32 0 -32 1 -10 10 14 6 21 15 18 23 -7 17
11 23 70 25 23 0 45 -4 49 -10z m-2308 -11 c10 -10 14 -10 21 0 6 10 10 10 20
-1 24 -30 -92 -73 -134 -49 -17 9 -17 10 3 21 13 7 19 17 16 26 -5 11 2 15 28
15 19 0 40 -6 46 -12z m1895 -45 c20 -13 37 -28 37 -34 0 -6 -7 -3 -16 5 -8 9
-19 16 -24 16 -5 0 -16 3 -25 6 -13 5 -15 1 -12 -17 2 -13 2 -19 0 -12 -2 7
-13 15 -24 18 -10 4 -19 11 -19 16 0 6 9 7 20 4 11 -4 20 -2 20 4 0 6 -4 11
-10 11 -5 0 -10 5 -10 11 0 11 2 10 63 -28z m205 25 c-5 -14 -60 -31 -68 -20
-3 4 -4 6 -1 5 2 -1 13 4 25 12 25 18 49 20 44 3z m-2390 -16 c3 -9 -3 -13
-19 -10 -12 1 -24 9 -27 16 -3 9 3 13 19 10 12 -1 24 -9 27 -16z m599 0 c18
-11 -5 -59 -32 -66 -33 -9 -83 -7 -90 4 -4 7 2 9 19 4 17 -4 26 -2 26 6 0 6 4
9 8 6 5 -3 6 8 4 25 -4 26 -2 29 24 29 16 0 35 -4 41 -8z m2088 -21 c-3 -6
-11 -11 -17 -11 -6 0 -6 6 2 15 14 17 26 13 15 -4z m-130 -30 c31 -18 39 -41
18 -48 -8 -3 -13 4 -13 16 0 12 -4 21 -8 21 -5 0 -17 7 -28 15 -26 20 -6 17
31 -4z m-1366 -18 c-13 -16 -25 -30 -26 -32 -2 -2 -5 -2 -8 1 -5 5 43 58 53
58 3 0 -5 -12 -19 -27z m1361 -24 c0 -5 -6 -9 -14 -9 -8 0 -14 9 -13 19 1 15
4 17 14 9 7 -6 13 -14 13 -19z m-360 -14 c0 -5 -5 -3 -10 5 -5 8 -10 20 -10
25 0 6 5 3 10 -5 5 -8 10 -19 10 -25z"/>
<path d="M2920 3455 c0 -8 4 -15 10 -15 5 0 7 7 4 15 -4 8 -8 15 -10 15 -2 0
-4 -7 -4 -15z"/>
<path d="M2765 3450 c-3 -5 -1 -10 4 -10 6 0 11 5 11 10 0 6 -2 10 -4 10 -3 0
-8 -4 -11 -10z"/>
<path d="M2815 3420 c3 -5 14 -10 23 -10 15 0 15 2 2 10 -20 13 -33 13 -25 0z"/>
<path d="M2407 3363 c6 -16 8 -16 23 1 9 12 8 15 -8 13 -12 0 -18 -6 -15 -14z"/>
<path d="M1619 3170 c30 -26 47 -26 21 0 -11 11 -26 20 -32 20 -7 -1 -2 -10
11 -20z"/>
<path d="M1130 3106 c-6 -6 -10 -16 -10 -23 0 -7 -4 -13 -9 -13 -5 0 -7 -9 -4
-20 3 -13 14 -20 29 -20 15 0 24 -6 24 -15 0 -8 7 -15 15 -15 24 0 30 4 28 20
-1 8 3 23 8 35 8 17 7 16 -7 -2 -20 -27 -41 -30 -46 -5 -7 32 4 52 29 52 13 0
22 4 18 10 -7 11 -62 8 -75 -4z"/>
<path d="M1025 3075 c-71 -58 -75 -64 -56 -94 8 -12 18 -7 53 25 44 39 70 78
60 89 -10 10 -27 4 -57 -20z"/>
<path d="M1038 2981 c-24 -24 -14 -91 13 -91 19 0 26 20 12 34 -13 13 -11 37
3 43 9 3 20 1 27 -6 14 -14 27 -14 27 -1 0 6 -7 10 -15 10 -8 0 -15 7 -15 15
0 20 -31 18 -52 -4z"/>
<path d="M941 2943 c-24 -10 -51 -37 -51 -51 0 -8 -13 -31 -30 -52 -38 -48
-42 -103 -8 -98 13 2 29 15 36 31 7 15 19 27 27 27 7 0 15 6 18 13 3 9 8 9 21
-2 12 -10 14 -17 6 -25 -15 -15 -12 -36 5 -36 8 0 15 -8 15 -17 0 -27 20 -1
30 38 5 19 12 44 15 56 7 21 5 22 -44 18 -28 -3 -51 -1 -51 3 0 13 24 39 39
44 8 2 15 16 15 31 2 27 -11 33 -43 20z m52 -128 c4 -8 2 -17 -2 -20 -5 -2
-11 4 -14 15 -6 23 8 27 16 5z"/>
<path d="M1057 2777 c-8 -12 -16 -37 -19 -54 -4 -27 -1 -33 14 -33 15 0 18 5
13 19 -9 28 4 69 23 73 16 3 16 4 0 10 -11 5 -21 -1 -31 -15z"/>
<path d="M817 2680 c-13 -16 -15 -25 -7 -40 5 -10 7 -26 4 -34 -8 -22 15 -76
32 -76 8 0 14 -4 14 -10 0 -5 7 -10 15 -10 8 0 15 -7 15 -15 0 -19 9 -19 34 0
18 14 18 15 2 15 -9 0 -14 5 -11 10 4 6 1 9 -7 8 -7 -2 -14 7 -16 20 -3 18 -9
23 -30 20 -23 -3 -25 0 -25 27 1 17 4 40 8 51 8 25 48 46 70 38 8 -4 15 -1 15
5 0 6 -20 11 -48 11 -35 0 -52 -5 -65 -20z"/>
<path d="M1080 2630 c0 -5 5 -10 10 -10 6 0 10 5 10 10 0 6 -4 10 -10 10 -5 0
-10 -4 -10 -10z"/>
<path d="M1050 2614 c0 -8 5 -12 10 -9 6 4 8 11 5 16 -9 14 -15 11 -15 -7z"/>
<path d="M737 2580 c3 -11 0 -20 -6 -20 -6 0 -11 -9 -11 -21 0 -11 -5 -29 -10
-39 -14 -27 4 -34 40 -15 25 13 29 20 24 41 -4 13 -7 32 -8 42 -1 16 -14 32
-28 32 -3 0 -4 -9 -1 -20z"/>
<path d="M948 2588 c9 -9 15 -9 24 0 9 9 7 12 -12 12 -19 0 -21 -3 -12 -12z"/>
<path d="M1050 2534 c0 -8 5 -12 10 -9 6 4 8 11 5 16 -9 14 -15 11 -15 -7z"/>
<path d="M770 2429 c0 -5 5 -7 10 -4 6 3 10 8 10 11 0 2 -4 4 -10 4 -5 0 -10
-5 -10 -11z"/>
<path d="M735 2420 c-3 -5 -12 -7 -19 -4 -16 6 -66 -37 -66 -57 0 -8 10 -3 25
14 14 15 34 27 44 27 10 0 24 7 31 15 8 9 9 15 2 15 -6 0 -13 -4 -17 -10z"/>
<path d="M960 2415 c0 -8 5 -15 10 -15 6 0 10 7 10 15 0 8 -4 15 -10 15 -5 0
-10 -7 -10 -15z"/>
<path d="M640 2330 c0 -5 5 -10 10 -10 6 0 10 5 10 10 0 6 -4 10 -10 10 -5 0
-10 -4 -10 -10z"/>
<path d="M710 2248 c0 -14 5 -15 32 -7 18 5 34 9 35 9 2 0 3 3 3 8 0 4 -16 7
-35 7 -26 0 -35 -4 -35 -17z"/>
<path d="M860 2259 c0 -5 5 -7 10 -4 6 3 10 8 10 11 0 2 -4 4 -10 4 -5 0 -10
-5 -10 -11z"/>
<path d="M585 2230 c-8 -16 -15 -40 -15 -53 0 -13 -10 -37 -22 -52 -15 -19
-22 -42 -22 -77 -1 -27 -6 -52 -11 -56 -11 -7 -34 -62 -42 -99 -7 -31 3 -65
26 -92 14 -16 18 -31 14 -60 -6 -44 10 -62 34 -38 21 21 26 219 6 259 -17 36
-17 35 17 53 25 13 28 19 21 38 -14 36 -7 113 12 132 9 9 17 13 18 8 0 -4 5 5
9 21 16 53 -19 66 -45 16z"/>
<path d="M715 2150 c-3 -5 -1 -10 4 -10 6 0 11 5 11 10 0 6 -2 10 -4 10 -3 0
-8 -4 -11 -10z"/>
<path d="M942 2073 c-12 -31 -19 -59 -17 -61 8 -8 65 10 90 29 29 23 35 73 9
83 -45 17 -61 7 -82 -51z"/>
<path d="M660 2063 c1 -20 19 -35 35 -29 15 5 15 8 1 21 -15 16 -36 20 -36 8z"/>
<path d="M755 2050 c-3 -5 1 -10 9 -10 9 0 16 5 16 10 0 6 -4 10 -9 10 -6 0
-13 -4 -16 -10z"/>
<path d="M750 2010 c0 -19 3 -21 12 -12 9 9 9 15 0 24 -9 9 -12 7 -12 -12z"/>
<path d="M604 1943 c-3 -16 -7 -32 -8 -38 -3 -8 12 -34 40 -73 1 -2 12 2 25 8
l22 13 -23 12 c-24 13 -33 38 -24 67 3 10 11 15 20 11 7 -3 14 -1 14 5 0 11
-23 22 -46 22 -7 0 -16 -12 -20 -27z"/>
<path d="M921 1916 c-29 -16 -39 -38 -40 -82 -1 -34 12 -44 59 -44 37 0 48 16
56 83 l7 57 -29 0 c-16 -1 -40 -7 -53 -14z"/>
<path d="M629 1777 c-32 -29 -41 -51 -30 -79 7 -19 8 -20 15 -3 6 17 8 17 30
-4 33 -31 43 -9 12 24 -26 28 -25 50 3 72 9 7 12 12 6 12 -5 0 -22 -10 -36
-22z"/>
<path d="M558 1628 c-20 -20 -43 -25 -32 -6 4 7 3 8 -5 4 -8 -5 -7 -16 5 -39
29 -56 34 -67 34 -76 0 -11 47 -61 57 -61 3 0 2 15 -2 33 -3 17 -8 38 -9 45
-1 7 -8 18 -14 24 -18 18 -15 29 14 59 l25 27 -28 4 c-18 2 -34 -3 -45 -14z"/>
<path d="M741 1634 c0 -11 3 -14 6 -6 3 7 2 16 -1 19 -3 4 -6 -2 -5 -13z"/>
<path d="M673 1576 c-24 -11 -29 -21 -15 -29 4 -3 15 6 25 19 10 13 17 23 15
23 -2 -1 -13 -6 -25 -13z"/>
<path d="M684 1455 c-10 -8 -14 -15 -8 -15 6 0 17 7 24 15 16 19 9 19 -16 0z"/>
<path d="M510 1310 c0 -5 -8 -7 -17 -4 -15 5 -14 3 2 -10 11 -8 27 -21 35 -29
32 -29 38 -28 37 8 -1 19 -5 35 -10 35 -4 0 -6 -4 -2 -9 8 -13 -10 -22 -29
-15 -13 5 -14 9 -5 20 8 10 8 14 0 14 -6 0 -11 -4 -11 -10z"/>
<path d="M583 1300 c1 -21 10 -18 13 5 1 8 -2 15 -6 15 -5 0 -8 -9 -7 -20z"/>
<path d="M477 1262 c-20 -22 -22 -67 -3 -103 7 -14 12 -45 10 -68 -2 -28 1
-41 10 -41 15 0 56 54 56 74 0 8 5 18 12 22 8 5 6 11 -7 20 -10 7 -15 20 -12
29 4 9 1 15 -8 15 -8 0 -15 8 -15 18 0 10 -6 26 -13 36 -12 16 -14 16 -30 -2z"/>
<path d="M737 1224 c-4 -4 -7 -14 -7 -23 0 -11 3 -12 11 -4 6 6 10 16 7 23 -2
6 -7 8 -11 4z"/>
<path d="M710 1150 c0 -5 5 -10 10 -10 6 0 10 5 10 10 0 6 -4 10 -10 10 -5 0
-10 -4 -10 -10z"/>
<path d="M588 1109 c-9 -5 -15 -16 -12 -23 3 -8 1 -17 -5 -21 -6 -3 -11 -16
-11 -29 0 -18 9 -25 40 -35 49 -15 54 -15 58 -3 1 5 -11 15 -28 22 -31 13 -39
37 -18 58 9 9 9 12 -1 12 -8 0 -11 6 -7 15 6 17 6 17 -16 4z"/>
<path d="M490 1031 c-38 -10 -38 -46 0 -66 17 -9 28 -20 25 -25 -4 -6 1 -13
10 -16 12 -5 15 -17 13 -43 -4 -52 22 -52 72 1 l40 43 -32 10 c-18 5 -39 15
-46 22 -7 7 -17 13 -22 13 -5 0 -11 13 -15 30 -8 36 -12 39 -45 31z"/>
<path d="M715 930 c3 -5 8 -10 11 -10 2 0 4 5 4 10 0 6 -5 10 -11 10 -5 0 -7
-4 -4 -10z"/>
<path d="M748 923 c7 -3 16 -2 19 1 4 3 -2 6 -13 5 -11 0 -14 -3 -6 -6z"/>
<path d="M830 840 c0 -5 5 -10 11 -10 5 0 7 5 4 10 -3 6 -8 10 -11 10 -2 0 -4
-4 -4 -10z"/>
<path d="M735 810 c-3 -5 -1 -10 4 -10 6 0 11 5 11 10 0 6 -2 10 -4 10 -3 0
-8 -4 -11 -10z"/>
<path d="M748 763 c-22 -5 -23 -17 -4 -32 10 -9 16 -8 26 4 15 19 3 33 -22 28z"/>
<path d="M571 712 c-16 -31 7 -90 42 -107 17 -8 33 -15 37 -15 12 0 37 43 44
78 6 26 4 32 -9 32 -8 0 -18 6 -21 14 -4 11 -12 13 -29 6 -15 -6 -27 -6 -30 0
-10 15 -23 12 -34 -8z"/>
<path d="M755 668 c-18 -17 -18 -18 6 -18 13 1 40 9 58 19 l35 19 -40 -2 c-24
0 -48 -8 -59 -18z"/>
<path d="M851 664 c-61 -25 -88 -59 -65 -81 16 -17 48 -3 64 27 6 11 19 20 29
20 12 0 20 9 24 28 3 15 5 27 4 28 -1 0 -26 -10 -56 -22z"/>
<path d="M915 650 c-3 -5 -1 -10 4 -10 6 0 11 5 11 10 0 6 -2 10 -4 10 -3 0
-8 -4 -11 -10z"/>
<path d="M905 623 c-35 -7 -72 -40 -59 -53 18 -18 84 13 84 39 0 12 -1 20 -2
20 -2 -1 -12 -4 -23 -6z"/>
<path d="M672 595 c-17 -21 -18 -29 -9 -50 10 -21 18 -25 47 -23 35 3 35 4 36
51 1 45 0 47 -27 47 -18 0 -35 -9 -47 -25z"/>
<path d="M1470 2385 c0 -17 2 -18 24 -9 23 9 20 24 -4 24 -11 0 -20 -7 -20
-15z"/>
<path d="M1452 2334 c4 -21 22 -23 26 -1 2 10 -3 17 -13 17 -10 0 -15 -6 -13
-16z"/>
<path d="M1835 2210 c-3 -5 3 -10 14 -10 12 0 21 5 21 10 0 6 -6 10 -14 10 -8
0 -18 -4 -21 -10z"/>
<path d="M1795 2171 c-3 -5 -1 -12 5 -16 12 -7 30 2 30 16 0 12 -27 12 -35 0z"/>
<path d="M1293 2128 c-10 -13 -53 -135 -53 -150 0 -4 9 -8 20 -8 31 0 65 40
85 99 14 45 15 55 4 62 -20 13 -45 11 -56 -3z"/>
<path d="M1229 1879 c-21 -8 -30 -23 -47 -82 -20 -67 -20 -73 -5 -84 21 -16
59 -17 68 -2 7 10 45 156 45 172 0 9 -29 8 -61 -4z"/>
<path d="M1542 2008 c-19 -24 -42 -92 -34 -100 13 -13 80 11 97 35 22 32 19
56 -11 67 -33 13 -39 13 -52 -2z"/>
<path d="M1505 1821 c-34 -7 -67 -60 -63 -101 3 -22 9 -25 46 -28 41 -3 43 -2
58 33 16 39 16 97 -1 100 -5 2 -23 0 -40 -4z"/>
<path d="M1940 1765 c-12 -33 -13 -45 -1 -45 5 0 14 13 19 30 14 37 -4 52 -18
15z"/>
<path d="M3817 1614 c6 -15 23 -19 23 -5 0 5 -7 11 -14 14 -10 4 -13 1 -9 -9z"/>
<path d="M1170 1510 c-7 -17 -9 -34 -6 -38 10 -9 36 27 36 50 0 28 -16 21 -30
-12z"/>
<path d="M1301 1203 c-14 -48 -14 -63 -1 -63 11 0 24 29 36 75 11 43 -23 31
-35 -12z"/>
<path d="M1960 3980 c20 -13 47 -13 55 0 4 6 -9 10 -32 10 -28 0 -34 -3 -23
-10z"/>
<path d="M2206 3972 c-3 -6 -1 -14 5 -17 15 -10 25 3 12 16 -7 7 -13 7 -17 1z"/>
<path d="M2130 3961 c0 -5 5 -13 10 -16 6 -3 10 -2 10 4 0 5 -4 13 -10 16 -5
3 -10 2 -10 -4z"/>
<path d="M2212 3863 c-9 -13 -14 -15 -18 -5 -9 19 -34 14 -34 -7 0 -31 23 -42
79 -35 40 4 51 2 51 -9 0 -16 27 -27 48 -20 23 8 12 25 -12 19 -20 -5 -27 -1
-37 23 -8 17 -20 32 -29 35 -8 3 -20 8 -25 11 -6 3 -16 -3 -23 -12z"/>
<path d="M1500 3858 c-14 -6 -20 -12 -13 -15 7 -2 23 3 35 11 25 18 15 20 -22
4z"/>
<path d="M2190 3776 c0 -8 5 -18 10 -21 6 -3 10 3 10 14 0 12 -4 21 -10 21 -5
0 -10 -6 -10 -14z"/>
<path d="M2260 3765 c0 -8 5 -15 10 -15 6 0 10 7 10 15 0 8 -4 15 -10 15 -5 0
-10 -7 -10 -15z"/>
<path d="M2250 3685 c0 -10 7 -15 18 -13 21 4 19 22 -2 26 -10 2 -16 -3 -16
-13z"/>
<path d="M1310 3684 c0 -17 17 -36 24 -26 3 5 -1 15 -9 22 -8 7 -15 9 -15 4z"/>
<path d="M2265 3629 c-4 -6 -5 -13 -2 -16 7 -7 27 6 27 18 0 12 -17 12 -25 -2z"/>
<path d="M1363 3598 c-14 -18 -25 -120 -13 -113 6 4 10 13 10 21 0 8 7 17 15
20 10 4 15 20 15 45 0 40 -10 49 -27 27z m14 -50 c-3 -7 -5 -2 -5 12 0 14 2
19 5 13 2 -7 2 -19 0 -25z"/>
<path d="M3975 3460 c-3 -5 -1 -18 4 -27 9 -16 10 -14 11 10 0 28 -5 34 -15
17z"/>
<path d="M3846 3423 c-2 -10 -8 -38 -11 -62 -6 -38 -5 -43 9 -38 8 3 18 2 21
-2 9 -16 -25 -33 -57 -29 -44 7 -78 -25 -85 -81 -6 -41 -5 -42 21 -35 16 4 26
2 26 -5 0 -6 -4 -11 -10 -11 -5 0 -12 -11 -16 -25 -4 -16 -13 -25 -25 -25 -11
0 -24 -11 -31 -25 -9 -21 -9 -29 5 -42 15 -15 17 -14 28 13 7 16 11 33 10 37
0 4 11 6 26 5 29 -3 33 7 18 46 -7 16 -5 17 16 11 13 -4 32 -14 42 -23 12 -11
17 -11 17 -3 0 7 -13 18 -29 24 -16 6 -35 22 -43 35 -11 21 -10 25 7 35 25 15
54 17 61 5 10 -16 44 24 44 52 0 15 8 34 18 43 22 20 37 11 17 -10 -15 -14
-35 -75 -35 -105 0 -9 -8 -21 -17 -27 -15 -8 -16 -12 -3 -38 13 -27 14 -27 18
-5 5 30 28 22 24 -8 -2 -22 -31 -52 -42 -45 -3 2 -6 -5 -6 -15 0 -10 3 -17 7
-14 4 2 9 -2 12 -10 7 -19 -24 -31 -35 -14 -6 10 -8 10 -8 1 0 -7 -6 -13 -13
-13 -23 0 -53 -43 -72 -103 -9 -32 -15 -61 -12 -63 9 -10 68 40 63 52 -3 7 2
15 10 18 8 3 14 14 14 25 0 21 17 37 27 27 4 -4 1 -12 -5 -18 -17 -17 -15 -26
8 -33 11 -3 20 -15 20 -26 0 -31 19 -22 28 14 6 19 5 37 0 44 -8 9 1 14 31 19
22 4 38 10 35 15 -3 5 0 9 5 9 6 0 11 20 11 45 0 38 -2 43 -17 38 -16 -6 -16
-5 -4 10 12 15 12 17 -4 10 -15 -5 -17 -3 -11 13 18 42 18 55 2 89 -10 20 -15
48 -13 63 l4 27 2 -27 c1 -20 6 -26 21 -25 12 1 20 8 20 20 0 10 -4 16 -8 13
-4 -2 -13 4 -19 14 -10 15 -9 19 8 23 13 3 19 14 19 31 0 21 -5 26 -25 26 -13
0 -33 10 -45 22 -15 16 -20 18 -20 7 0 -8 5 -20 12 -27 8 -8 9 -12 1 -12 -23
0 -43 12 -43 26 0 8 -5 14 -11 14 -6 0 -1 9 12 20 l24 19 -22 1 c-12 0 -24 -8
-27 -17z"/>
<path d="M3922 3418 c3 -7 13 -15 22 -16 12 -3 17 1 14 10 -3 7 -13 15 -22 16
-12 3 -17 -1 -14 -10z"/>
<path d="M3970 3390 c0 -5 5 -10 11 -10 5 0 7 5 4 10 -3 6 -8 10 -11 10 -2 0
-4 -4 -4 -10z"/>
<path d="M2674 3295 c-8 -19 -6 -20 24 -30 21 -6 23 -5 13 13 -16 29 -30 36
-37 17z"/>
<path d="M2911 3198 c-1 -16 4 -28 9 -28 12 0 12 8 0 35 -8 18 -9 17 -9 -7z"/>
<path d="M3800 3202 c0 -12 9 -26 19 -32 30 -16 33 4 6 30 -25 23 -25 23 -25
2z"/>
<path d="M2476 3195 c4 -8 11 -15 16 -15 6 0 5 6 -2 15 -7 8 -14 15 -16 15 -2
0 -1 -7 2 -15z"/>
<path d="M2740 3120 c0 -5 5 -10 11 -10 5 0 7 5 4 10 -3 6 -8 10 -11 10 -2 0
-4 -4 -4 -10z"/>
<path d="M2365 3110 c-3 -6 1 -7 9 -4 18 7 21 14 7 14 -6 0 -13 -4 -16 -10z"/>
<path d="M2521 3097 c-17 -17 -13 -27 9 -27 14 0 20 -7 21 -22 0 -16 2 -18 6
-8 3 8 9 17 13 20 4 3 -3 15 -15 27 -17 16 -26 18 -34 10z"/>
<path d="M2350 3081 c0 -5 5 -13 10 -16 6 -3 10 -2 10 4 0 5 -4 13 -10 16 -5
3 -10 2 -10 -4z"/>
<path d="M2600 3050 c0 -5 5 -10 10 -10 6 0 10 5 10 10 0 6 -4 10 -10 10 -5 0
-10 -4 -10 -10z"/>
<path d="M2283 3020 c-1 -17 1 -18 17 -8 14 9 16 14 7 20 -18 12 -23 10 -24
-12z"/>
<path d="M2534 3002 c1 -25 4 -28 26 -23 18 4 20 6 8 9 -10 2 -18 10 -18 17 0
8 -4 16 -9 19 -4 3 -8 -7 -7 -22z"/>
<path d="M2465 3009 c-19 -9 -19 -9 2 -5 12 2 24 -1 27 -8 3 -8 5 -8 5 1 1 17
-11 22 -34 12z"/>
<path d="M2378 3003 c7 -3 16 -2 19 1 4 3 -2 6 -13 5 -11 0 -14 -3 -6 -6z"/>
<path d="M2416 2975 c-8 -38 -19 -44 -35 -17 -10 16 -11 15 -12 -3 -1 -11 -1
-26 0 -34 2 -8 -2 -10 -10 -6 -7 5 -10 3 -8 -4 3 -7 8 -12 12 -12 4 1 13 1 21
1 7 0 16 9 19 21 9 34 63 10 80 -35 7 -19 9 -19 25 -2 16 16 16 18 0 27 -9 5
-16 15 -14 22 1 6 1 9 -1 5 -11 -19 -23 -6 -13 12 7 14 7 20 0 20 -5 0 -10 -7
-10 -15 0 -8 -7 -15 -16 -15 -9 0 -12 5 -8 12 5 8 2 9 -11 4 -18 -7 -18 -6 -2
12 15 16 15 21 3 31 -11 9 -15 5 -20 -24z"/>
<path d="M2608 3003 c7 -3 16 -2 19 1 4 3 -2 6 -13 5 -11 0 -14 -3 -6 -6z"/>
<path d="M2646 2995 c-6 -16 12 -55 26 -55 3 0 6 14 5 32 -2 34 -21 49 -31 23z"/>
<path d="M3690 2992 c0 -10 3 -22 8 -26 4 -4 7 -13 7 -18 0 -6 5 -13 11 -15 6
-2 16 14 22 37 10 40 10 40 -19 40 -21 0 -29 -5 -29 -18z"/>
<path d="M2328 2983 c6 -2 18 -2 25 0 6 3 1 5 -13 5 -14 0 -19 -2 -12 -5z"/>
<path d="M2582 2951 c7 -11 16 -17 20 -15 5 3 2 12 -6 20 -21 20 -28 17 -14
-5z"/>
<path d="M3979 2968 c-1 -2 -3 -22 -5 -45 -2 -26 -12 -51 -25 -64 -15 -15 -20
-29 -15 -50 3 -15 1 -31 -5 -34 -16 -10 -39 15 -39 43 0 14 -3 22 -7 19 -3 -4
-14 0 -24 9 -21 19 -43 13 -59 -16 -9 -17 -6 -25 20 -52 27 -27 31 -36 25 -65
-6 -33 -5 -34 17 -22 30 16 39 30 32 52 -3 11 0 17 10 17 9 0 16 -5 16 -10 0
-6 8 -10 18 -8 13 2 16 -3 14 -24 -1 -16 2 -28 8 -28 6 0 10 25 10 58 0 32 5
63 12 70 8 8 8 15 -1 26 -7 9 -9 21 -5 28 10 15 18 98 10 98 -3 0 -6 -1 -7 -2z"/>
<path d="M3982 2710 c0 -19 2 -27 5 -17 2 9 2 25 0 35 -3 9 -5 1 -5 -18z"/>
<path d="M3930 2672 c0 -12 19 -26 26 -19 2 2 -2 10 -11 17 -9 8 -15 8 -15 2z"/>
<path d="M3960 2624 c0 -8 5 -12 10 -9 6 3 10 10 10 16 0 5 -4 9 -10 9 -5 0
-10 -7 -10 -16z"/>
<path d="M3905 2613 c-20 -15 -20 -15 3 -10 12 3 22 0 22 -6 0 -15 13 0 16 18
3 19 -16 19 -41 -2z"/>
<path d="M2585 2600 c-3 -5 1 -10 9 -10 9 0 16 5 16 10 0 6 -4 10 -9 10 -6 0
-13 -4 -16 -10z"/>
<path d="M3960 2579 c-14 -16 -31 -27 -38 -24 -21 8 -31 -37 -14 -62 17 -26
32 -30 32 -8 0 9 11 20 23 26 20 9 24 18 24 55 0 24 -1 44 -1 43 -1 0 -12 -14
-26 -30z"/>
<path d="M2540 2588 c0 -10 6 -18 13 -18 7 -1 5 -6 -5 -14 -21 -16 -24 -40 -4
-33 7 3 19 0 26 -6 10 -10 12 -7 7 11 -3 12 -1 22 4 22 5 0 9 5 9 10 0 6 -4 9
-9 8 -5 -2 -17 6 -25 17 -14 18 -15 18 -16 3z"/>
<path d="M3847 2593 c-6 -10 -10 -48 -8 -89 1 -28 4 -31 27 -26 14 2 22 7 17
11 -19 14 -33 62 -23 81 10 18 -3 40 -13 23z"/>
<path d="M3880 2570 c0 -11 5 -20 10 -20 6 0 10 9 10 20 0 11 -4 20 -10 20 -5
0 -10 -9 -10 -20z"/>
<path d="M2452 2563 c9 -10 18 -25 21 -33 4 -12 6 -12 6 2 2 27 -10 48 -27 48
-14 0 -14 -2 0 -17z"/>
<path d="M3791 2551 c-7 -5 -12 -14 -9 -21 2 -7 10 -4 22 9 19 21 12 28 -13
12z"/>
<path d="M3670 2395 c-1 -11 -1 -30 -1 -42 3 -29 -17 -39 -34 -17 -13 18 -14
18 -9 -3 6 -23 34 -40 34 -21 0 6 3 8 8 4 4 -4 7 -39 7 -77 0 -38 4 -68 9 -66
5 1 8 26 7 55 -2 41 1 57 15 66 9 7 14 18 10 24 -11 19 -26 14 -19 -5 3 -10 2
-14 -3 -10 -5 5 -11 32 -15 60 -3 29 -7 43 -9 32z"/>
<path d="M3716 2375 c-3 -8 -1 -15 4 -15 6 0 10 7 10 15 0 8 -2 15 -4 15 -2 0
-6 -7 -10 -15z"/>
<path d="M3970 2380 c0 -5 5 -10 11 -10 5 0 7 5 4 10 -3 6 -8 10 -11 10 -2 0
-4 -4 -4 -10z"/>
<path d="M3870 2345 c0 -8 2 -15 4 -15 2 0 6 7 10 15 3 8 1 15 -4 15 -6 0 -10
-7 -10 -15z"/>
<path d="M3836 2315 c4 -8 8 -15 10 -15 2 0 4 7 4 15 0 8 -4 15 -10 15 -5 0
-7 -7 -4 -15z"/>
<path d="M3785 2296 c-3 -9 -7 -23 -10 -31 -7 -22 1 -18 19 9 10 16 12 27 6
31 -6 3 -12 -1 -15 -9z"/>
<path d="M3880 2284 c0 -3 7 -12 15 -20 13 -13 15 -13 15 -1 0 8 -7 17 -15 21
-8 3 -15 3 -15 0z"/>
<path d="M3930 2250 c0 -5 5 -10 10 -10 6 0 10 5 10 10 0 6 -4 10 -10 10 -5 0
-10 -4 -10 -10z"/>
<path d="M3790 2228 c0 -12 3 -18 7 -14 11 10 12 36 2 36 -5 0 -9 -10 -9 -22z"/>
<path d="M3960 2240 c0 -5 5 -10 10 -10 6 0 10 5 10 10 0 6 -4 10 -10 10 -5 0
-10 -4 -10 -10z"/>
<path d="M3840 2225 c0 -2 7 -8 15 -15 12 -10 15 -10 15 2 0 8 -7 15 -15 15
-8 0 -15 -1 -15 -2z"/>
<path d="M3790 2190 c-13 -8 -12 -10 3 -10 9 0 17 5 17 10 0 12 -1 12 -20 0z"/>
<path d="M3146 2165 c4 -8 8 -15 10 -15 2 0 4 7 4 15 0 8 -4 15 -10 15 -5 0
-7 -7 -4 -15z"/>
<path d="M2741 2146 c-23 -13 -23 -13 18 -23 43 -11 55 -6 45 21 -7 19 -31 20
-63 2z"/>
<path d="M3708 2153 c6 -2 18 -2 25 0 6 3 1 5 -13 5 -14 0 -19 -2 -12 -5z"/>
<path d="M3017 2144 c-3 -3 -3 -12 0 -20 6 -16 53 -19 53 -4 0 6 12 8 28 5 26
-6 26 -6 8 9 -19 16 -77 22 -89 10z"/>
<path d="M3670 2125 c0 -8 4 -15 9 -15 5 0 14 7 21 15 10 13 9 15 -9 15 -12 0
-21 -6 -21 -15z"/>
<path d="M3625 2075 c-27 -22 -28 -24 -8 -22 26 4 36 12 39 32 3 19 4 19 -31
-10z"/>
<path d="M2950 1910 c-12 -8 -8 -10 15 -11 17 -1 33 -1 38 0 4 0 7 -9 7 -21 0
-21 1 -21 17 -5 11 11 14 20 8 26 -16 15 -69 22 -85 11z"/>
<path d="M2835 1903 c-31 -7 -42 -22 -25 -33 9 -5 18 -4 24 5 6 8 27 18 46 23
35 10 35 10 5 10 -16 0 -39 -2 -50 -5z"/>
<path d="M3442 1875 c0 -16 2 -22 5 -12 2 9 2 23 0 30 -3 6 -5 -1 -5 -18z"/>
<path d="M11 1846 c-7 -8 -11 -30 -9 -48 l4 -33 12 44 c14 47 12 60 -7 37z"/>
<path d="M3391 1807 c-13 -21 -12 -21 5 -5 10 10 16 20 13 22 -3 3 -11 -5 -18
-17z"/>
<path d="M3586 1785 c-3 -8 -1 -15 4 -15 13 0 22 18 11 24 -5 3 -11 -1 -15 -9z"/>
<path d="M3425 1760 c3 -5 8 -10 11 -10 2 0 4 5 4 10 0 6 -5 10 -11 10 -5 0
-7 -4 -4 -10z"/>
<path d="M3431 1724 c0 -11 3 -14 6 -6 3 7 2 16 -1 19 -3 4 -6 -2 -5 -13z"/>
<path d="M160 1384 c0 -8 5 -12 10 -9 6 3 10 10 10 16 0 5 -4 9 -10 9 -5 0
-10 -7 -10 -16z"/>
<path d="M2956 1362 c-12 -13 -20 -13 -38 -4 -20 9 -148 13 -148 4 0 -9 57
-51 71 -52 8 0 19 -4 25 -9 17 -17 52 -16 72 2 13 12 26 16 34 11 7 -5 32 -14
56 -20 33 -9 46 -8 60 2 9 7 24 14 33 14 24 0 32 42 11 55 -29 17 -158 14
-176 -3z m-46 -26 c0 -3 -4 -8 -10 -11 -5 -3 -10 -1 -10 4 0 6 5 11 10 11 6 0
10 -2 10 -4z"/>
<path d="M2422 1213 c-21 -8 -62 -81 -56 -97 3 -8 13 -16 22 -18 27 -6 72 3
66 13 -3 5 2 25 12 44 22 48 1 76 -44 58z m12 -60 c-8 -35 -7 -33 -23 -24 -11
7 -11 12 0 30 19 29 31 26 23 -6z"/>
<path d="M3310 1200 c20 -13 33 -13 25 0 -3 6 -14 10 -23 10 -15 0 -15 -2 -2
-10z"/>
<path d="M3301 1104 c0 -11 3 -14 6 -6 3 7 2 16 -1 19 -3 4 -6 -2 -5 -13z"/>
<path d="M2223 1092 c-20 -2 -33 -9 -33 -17 0 -19 68 -125 80 -125 6 0 18 8
28 18 14 14 31 18 68 16 51 -3 94 11 94 31 0 17 -64 75 -83 75 -21 0 -21 -10
-2 -57 13 -32 13 -34 0 -23 -8 7 -19 27 -23 44 -7 28 -13 32 -53 36 -24 3 -59
4 -76 2z m106 -49 c16 -34 14 -38 -16 -40 -15 0 -29 -6 -31 -13 -2 -6 -17 3
-33 21 -43 49 -38 60 27 57 34 -1 44 -6 53 -25z m111 -24 c0 -6 -4 -7 -10 -4
-5 3 -10 11 -10 16 0 6 5 7 10 4 6 -3 10 -11 10 -16z"/>
<path d="M2871 1076 c-8 -10 -8 -16 1 -24 18 -14 16 -121 -2 -132 -11 -7 -11
-11 -1 -24 15 -18 33 -12 25 8 -3 7 2 16 10 19 10 4 14 17 11 41 -2 26 2 39
13 45 15 9 15 11 -2 30 -17 19 -17 21 -2 27 9 3 16 10 16 15 0 14 -56 10 -69
-5z"/>
<path d="M3266 1069 c-23 -27 -15 -35 9 -9 10 11 16 22 14 25 -3 2 -13 -5 -23
-16z"/>
<path d="M225 1020 c4 -6 11 -8 16 -5 14 9 11 15 -7 15 -8 0 -12 -5 -9 -10z"/>
<path d="M3883 1023 c9 -2 23 -2 30 0 6 3 -1 5 -18 5 -16 0 -22 -2 -12 -5z"/>
<path d="M250 989 c0 -5 5 -7 10 -4 6 3 10 8 10 11 0 2 -4 4 -10 4 -5 0 -10
-5 -10 -11z"/>
<path d="M3224 979 c-3 -6 -2 -15 3 -20 5 -5 9 -1 10 11 2 22 -2 25 -13 9z"/>
<path d="M3756 982 c-2 -4 13 -6 35 -4 21 2 39 6 39 8 0 7 -69 4 -74 -4z"/>
<path d="M2090 969 c0 -5 5 -7 10 -4 6 3 10 8 10 11 0 2 -4 4 -10 4 -5 0 -10
-5 -10 -11z"/>
<path d="M3960 960 c0 -5 4 -10 9 -10 6 0 13 5 16 10 3 6 -1 10 -9 10 -9 0
-16 -4 -16 -10z"/>
<path d="M3050 950 c0 -5 15 -10 33 -10 24 0 28 3 17 10 -20 13 -50 13 -50 0z"/>
<path d="M3930 950 c-8 -5 -12 -11 -9 -14 2 -3 11 -1 19 4 8 5 12 11 9 14 -2
3 -11 1 -19 -4z"/>
<path d="M3188 943 c7 -3 16 -2 19 1 4 3 -2 6 -13 5 -11 0 -14 -3 -6 -6z"/>
<path d="M2010 910 c0 -5 -6 -10 -13 -10 -8 0 -14 -6 -14 -13 0 -23 32 -14 33
10 1 13 0 23 -2 23 -2 0 -4 -4 -4 -10z"/>
<path d="M2270 891 c-16 -41 -10 -62 27 -87 41 -27 135 -47 168 -34 37 14 31
42 -13 62 -20 9 -57 26 -82 37 -25 11 -55 27 -66 36 -20 15 -22 14 -34 -14z
m69 -48 c7 -12 10 -14 11 -4 0 11 3 11 15 1 8 -7 15 -9 15 -5 0 4 6 2 13 -4 8
-6 16 -9 18 -6 3 2 10 -5 17 -15 10 -17 9 -20 -5 -21 -58 -4 -117 17 -108 39
4 10 0 12 -11 8 -14 -5 -15 -4 -4 9 16 20 27 19 39 -2z"/>
<path d="M3180 888 c0 -4 16 -8 35 -8 19 0 35 2 35 4 0 2 -16 6 -35 8 -19 2
-35 0 -35 -4z"/>
<path d="M3298 893 c7 -3 16 -2 19 1 4 3 -2 6 -13 5 -11 0 -14 -3 -6 -6z"/>
<path d="M3040 870 c-19 -11 -43 -19 -52 -20 -10 0 -18 -4 -18 -9 0 -13 86 17
101 35 15 18 12 17 -31 -6z"/>
<path d="M3420 870 c19 -13 30 -13 30 0 0 6 -10 10 -22 10 -19 0 -20 -2 -8
-10z"/>
<path d="M3255 860 c-33 -4 -54 -7 -47 -8 7 -1 19 -17 27 -36 20 -48 62 -61
93 -29 16 16 16 16 -3 9 -46 -19 -51 -17 -68 18 l-17 36 53 0 c28 0 59 5 67
10 17 11 -5 11 -105 0z"/>
<path d="M1935 840 c17 -18 17 -20 1 -20 -13 0 -15 -4 -7 -17 31 -57 73 -72
142 -52 43 13 48 23 22 38 -10 6 -14 11 -10 11 12 0 -20 30 -32 30 -7 0 -7 -8
-1 -24 7 -21 5 -25 -15 -29 -14 -2 -22 -1 -20 3 3 4 -9 13 -26 20 -25 11 -29
17 -25 37 6 20 3 23 -20 23 -26 0 -27 0 -9 -20z"/>
<path d="M1986 852 c-3 -6 3 -12 15 -15 12 -3 19 -1 16 6 -5 15 -24 20 -31 9z"/>
<path d="M2902 841 c7 -12 19 -19 26 -16 8 3 18 5 23 5 14 0 11 17 -3 18 -7 0
-24 4 -36 8 -22 6 -23 5 -10 -15z"/>
<path d="M3090 850 c0 -11 14 -11 50 0 22 7 21 8 -12 9 -21 1 -38 -3 -38 -9z"/>
<path d="M3120 830 c0 -5 5 -10 11 -10 5 0 7 5 4 10 -3 6 -8 10 -11 10 -2 0
-4 -4 -4 -10z"/>
<path d="M3150 829 c0 -5 5 -7 10 -4 6 3 10 8 10 11 0 2 -4 4 -10 4 -5 0 -10
-5 -10 -11z"/>
<path d="M2994 816 c-41 -15 -45 -30 -8 -36 38 -8 66 0 60 15 -2 7 1 18 7 24
14 14 -16 13 -59 -3z"/>
<path d="M3385 823 c-11 -3 -24 -10 -30 -15 -7 -7 -2 -8 15 -3 52 15 64 30 15
18z"/>
<path d="M300 811 c0 -5 7 -11 14 -14 10 -4 13 -1 9 9 -6 15 -23 19 -23 5z"/>
<path d="M1827 813 c-24 -6 -11 -23 18 -23 29 0 41 16 19 24 -9 3 -16 5 -17 5
-1 -1 -10 -3 -20 -6z"/>
<path d="M2581 797 c-6 -8 -8 -17 -4 -20 3 -4 1 -7 -7 -7 -10 0 -10 -3 0 -15
6 -8 9 -18 7 -22 -8 -12 60 -31 75 -22 9 6 7 9 -7 9 -13 0 -26 13 -36 35 -9
19 -13 34 -10 33 23 -2 41 4 36 12 -9 14 -41 12 -54 -3z"/>
<path d="M2715 800 c-69 -6 -69 -7 -20 -10 28 -2 64 -3 80 -2 52 2 62 -7 29
-27 -16 -10 -43 -23 -59 -29 l-30 -12 35 6 c19 3 45 12 57 20 12 8 30 14 39
14 10 0 14 3 11 7 -4 3 0 15 10 25 15 17 14 18 -33 16 -27 -1 -80 -4 -119 -8z"/>
<path d="M3430 791 c0 -6 5 -13 10 -16 6 -3 10 1 10 9 0 9 -4 16 -10 16 -5 0
-10 -4 -10 -9z"/>
<path d="M3380 775 c-8 -9 -8 -15 -2 -15 12 0 26 19 19 26 -2 2 -10 -2 -17
-11z"/>
<path d="M2905 750 c-8 -13 5 -13 25 0 13 8 13 10 -2 10 -9 0 -20 -4 -23 -10z"/>
<path d="M2240 745 c0 -9 44 -23 54 -17 5 3 1 9 -10 13 -23 9 -44 11 -44 4z"/>
<path d="M2162 733 c-17 -7 4 -33 26 -33 8 0 23 -7 33 -16 11 -10 44 -18 83
-21 46 -4 70 -11 82 -24 10 -11 25 -19 34 -19 9 0 21 -5 27 -11 7 -7 26 -8 55
-4 l43 8 -40 18 c-22 10 -52 18 -66 18 -25 1 -66 15 -137 48 -17 8 -42 13 -53
10 -12 -3 -18 -3 -15 0 8 8 -26 32 -44 32 -8 0 -21 -3 -28 -6z"/>
<path d="M2370 730 c0 -5 5 -10 10 -10 6 0 10 5 10 10 0 6 -4 10 -10 10 -5 0
-10 -4 -10 -10z"/>
<path d="M2680 720 c0 -5 5 -10 11 -10 5 0 7 5 4 10 -3 6 -8 10 -11 10 -2 0
-4 -4 -4 -10z"/>
<path d="M1319 704 c-6 -8 -9 -17 -5 -21 3 -3 6 -1 6 6 0 8 7 10 20 6 23 -7
28 10 6 18 -8 3 -20 -1 -27 -9z"/>
<path d="M2780 690 c-8 -5 -10 -10 -5 -10 6 0 17 5 25 10 8 5 11 10 5 10 -5 0
-17 -5 -25 -10z"/>
<path d="M2191 211 c-10 -6 -9 -10 3 -14 8 -3 18 -2 21 3 8 13 -9 20 -24 11z"/>
<path d="M1836 124 c-2 -6 5 -11 17 -10 11 1 22 6 24 13 5 15 -35 13 -41 -3z"/>
<path d="M7 113 c7 -2 19 -2 26 0 6 3 1 5 -13 5 -14 0 -19 -2 -13 -5z"/>
<path d="M1770 10 c0 -5 5 -10 10 -10 6 0 10 5 10 10 0 6 -4 10 -10 10 -5 0
-10 -4 -10 -10z"/>
<path d="M1905 10 c-3 -5 -1 -10 4 -10 6 0 11 5 11 10 0 6 -2 10 -4 10 -3 0
-8 -4 -11 -10z"/>
</g>
</svg>
